  0
SECTION
  2
HEADER
  0
ENDSEC
  0
SECTION
  2
TABLES
  0
TABLE
  2
LTYPE
 70
5
  0
LTYPE
  2
CONTINUOUS
 70
0
  3
CONTINUOUS
 72
65
 73
0
 40
0.0
  0
LTYPE
  2
DASHED
 70
0
  3
DASHED
 72
65
 73
2
 40
0.75
 49
0.5
 49
-0.25
  0
LTYPE
  2
DOT
 70
0
  3
DOT
 72
65
 73
2
 40
0.25
 49
0.0
 49
-0.25
  0
LTYPE
  2
CENTRE
 70
0
  3
CENTRE
 72
65
 73
4
 40
2.0
 49
1.25
 49
-0.25
 49
0.25
 49
-0.25
  0
LTYPE
  2
DASHDOT
 70
0
  3
DASHDOT
 72
65
 73
4
 40
1.0
 49
0.5
 49
-0.25
 49
0.0
 49
-0.25
  0
ENDTAB
  0
TABLE
  2
LAYER
 70
17
  0
LAYER
  2
0
 70
0
 62
7
  6
CONTINUOUS
  0
LAYER
  2
WHITE
 70
0
 62
7
  6
CONTINUOUS
  0
LAYER
  2
BLUE
 70
0
 62
5
  6
CONTINUOUS
  0
LAYER
  2
GREEN
 70
0
 62
3
  6
CONTINUOUS
  0
LAYER
  2
CYAN
 70
0
 62
4
  6
CONTINUOUS
  0
LAYER
  2
RED
 70
0
 62
1
  6
CONTINUOUS
  0
LAYER
  2
MAGENTA
 70
0
 62
6
  6
CONTINUOUS
  0
LAYER
  2
YELLOW
 70
0
 62
2
  6
CONTINUOUS
  0
ENDTAB
  0
ENDSEC
  0
SECTION
  2
BLOCKS
  0
ENDSEC
  0
SECTION
  2
ENTITIES
  0
LINE
  8
CYAN
 10
208.57556
 20
389.86578
 11
208.57556
 21
392.86578
  0
LINE
  8
CYAN
 10
208.57556
 20
392.86578
 11
228.07556
 21
392.86578
  0
ARC
  8
CYAN
 10
-374.41778
 20
399.46578
 40
602.5294886928
 50
359.3723797516
 51
0.6276202484
  0
LINE
  8
CYAN
 10
228.07556
 20
406.06578
 11
228.07556
 21
406.9652
  0
ARC
  8
CYAN
 10
224.3255622796
 20
406.9651917285
 40
3.7499977204
 50
0.0001263792
 51
30.8158091103
  0
ARC
  8
CYAN
 10
223.6271159516
 20
406.5485810347
 40
4.5632576686
 50
30.8157215244
 51
120.5103122456
  0
ARC
  8
CYAN
 10
222.8334733943
 20
407.8953833082
 40
3.0000094885
 50
120.5104957512
 51
148.017702372
  0
ARC
  8
CYAN
 10
207.6472425152
 20
417.3782629334
 40
14.9038061467
 50
298.6896990072
 51
328.0177278801
  0
ARC
  8
CYAN
 10
211.5615979451
 20
410.2254767235
 40
6.7500015749
 50
271.7210166298
 51
298.6897687775
  0
ARC
  8
CYAN
 10
194.269467054
 20
985.7875598383
 40
582.5717876425
 50
268.161143577
 51
271.7208728286
  0
ARC
  8
CYAN
 10
175.619236054
 20
411.1794327584
 40
7.6637772149
 50
200.4163864437
 51
269.6734681824
  0
ARC
  8
CYAN
 10
165.6253346523
 20
407.4594754838
 40
3.0000001342
 50
20.4164718224
 51
71.2835394857
  0
ARC
  8
CYAN
 10
163.4995988649
 20
401.1852417019
 40
9.624557643
 50
71.283451625
 51
91.3367599824
  0
ARC
  8
CYAN
 10
163.3275605554
 20
408.5577905304
 40
2.250001832
 50
91.3367812045
 51
176.0291697476
  0
ARC
  8
CYAN
 10
372.4597013848
 20
394.0408920235
 40
211.885382124
 50
176.0291853085
 51
180.1960774231
  0
LINE
  8
CYAN
 10
160.57556
 20
393.31578
 11
180.07556
 21
393.31578
  0
LINE
  8
CYAN
 10
180.07556
 20
393.31578
 11
180.07556
 21
390.31578
  0
LINE
  8
CYAN
 10
180.07556
 20
390.31578
 11
160.57556
 21
390.31578
  0
ARC
  8
CYAN
 10
250.4501602173
 20
386.0983550246
 40
89.9734985296
 50
177.3133285797
 51
187.6888954569
  0
ARC
  8
CYAN
 10
163.515371249
 20
374.361468759
 40
2.2500009238
 50
187.6889434131
 51
262.6790565491
  0
ARC
  8
CYAN
 10
163.9613988938
 20
377.8333073986
 40
5.7503729325
 50
262.6792057498
 51
303.685973502
  0
ARC
  8
CYAN
 10
165.4868830953
 20
375.5447538904
 40
2.9999949205
 50
303.6856865489
 51
339.299976429
  0
ARC
  8
CYAN
 10
175.3604942366
 20
371.8138428398
 40
7.5549988851
 50
88.368758805
 51
159.3001207201
  0
ARC
  8
CYAN
 10
194.3253845817
 20
-792.4342201124
 40
1171.9499973059
 50
89.1567012528
 51
90.9167043409
  0
ARC
  8
CYAN
 10
211.4745746717
 20
372.6395687716
 40
6.7500023414
 50
61.3789782516
 51
89.1567005087
  0
ARC
  8
CYAN
 10
204.6582575929
 20
360.1484638547
 40
20.979896247
 50
40.6508809382
 51
61.3789804361
  0
ARC
  8
CYAN
 10
223.7274595919
 20
376.93444994
 40
4.4340244961
 50
224.6963751094
 51
332.0421178743
  0
ARC
  8
CYAN
 10
224.3316507185
 20
376.6137628194
 40
3.7500017283
 50
332.0421513475
 51
359.3620510242
  0
ARC
  8
CYAN
 10
-346.1054700045
 20
382.9657901241
 40
574.2224874361
 50
359.3620169978
 51
0.6884958734
  0
LINE
  8
CYAN
 10
228.07556
 20
389.86578
 11
208.57556
 21
389.86578
  0
LINE
  8
CYAN
 10
263.74321
 20
391.17853
 11
242.74321
 21
394.17853
  0
ARC
  8
CYAN
 10
262.8486788937
 20
385.0659846057
 40
22.0741559974
 50
155.6182005474
 51
231.3950068565
  0
LINE
  8
CYAN
 10
249.07556
 20
367.81578
 11
264.07556
 21
379.06578
  0
LINE
  8
CYAN
 10
264.07556
 20
379.06578
 11
265.87556
 21
376.66578
  0
LINE
  8
CYAN
 10
265.87556
 20
376.66578
 11
250.87556
 21
365.41578
  0
ARC
  8
CYAN
 10
521.3180085605
 20
587.8868116723
 40
350.1892030271
 50
219.4413552089
 51
221.9997177306
  0
ARC
  8
CYAN
 10
265.2005623554
 20
356.1907793564
 40
4.8894034455
 50
212.4711711088
 51
296.9617995382
  0
ARC
  8
CYAN
 10
265.3771073896
 20
355.8436971598
 40
4.5000010828
 50
296.9619220083
 51
337.8652617794
  0
ARC
  8
CYAN
 10
280.9505576996
 20
349.5089599817
 40
12.3125314354
 50
23.046672356
 51
157.8652053743
  0
ARC
  8
CYAN
 10
297.1113573558
 20
356.3843532085
 40
5.2499990642
 50
203.0466631107
 51
235.9390926784
  0
ARC
  8
CYAN
 10
297.8255587693
 20
357.4407798403
 40
6.5251935151
 50
235.9391106204
 51
318.8445218054
  0
ARC
  8
CYAN
 10
306.1267134866
 20
350.1850344616
 40
4.5000053785
 50
121.9058212534
 51
138.8443304119
  0
ARC
  8
CYAN
 10
313.5420424903
 20
338.274605001
 40
18.5301669659
 50
101.7354310776
 51
121.9059801948
  0
ARC
  8
CYAN
 10
310.68837498
 20
352.0114991754
 40
4.4999966242
 50
82.0401580751
 51
101.7350159769
  0
ARC
  8
CYAN
 10
304.0055948614
 20
304.2157699738
 40
52.7606563796
 50
65.8688486632
 51
82.0404954191
  0
ARC
  8
CYAN
 10
330.6620856388
 20
368.2373440377
 40
16.6667119756
 50
252.2303622396
 51
358.9787177604
  0
ARC
  8
CYAN
 10
350.3256689869
 20
367.8868068505
 40
2.9999955884
 50
145.3574264127
 51
178.9786824844
  0
ARC
  8
CYAN
 10
351.6281941841
 20
366.9868298502
 40
4.583198194
 50
30.5406513461
 51
145.3574687126
  0
ARC
  8
CYAN
 10
359.1891962412
 20
371.0885015674
 40
4.0250352346
 50
206.1309283994
 51
288.5964149296
  0
ARC
  8
CYAN
 10
359.5160827211
 20
370.1169832507
 40
2.9999973765
 50
288.5963766191
 51
351.5404460085
  0
ARC
  8
CYAN
 10
449.887440474
 20
356.6760883512
 40
88.365422547
 50
167.5593381671
 51
171.5404347206
  0
ARC
  8
CYAN
 10
367.9912118576
 20
374.7430861874
 40
4.5000025434
 50
159.0180405451
 51
167.5593973367
  0
ARC
  8
CYAN
 10
349.3384498457
 20
381.896471471
 40
15.4773959782
 50
339.0180456164
 51
32.9546114514
  0
ARC
  8
CYAN
 10
342.6152552917
 20
371.1476778345
 40
27.4938584473
 50
44.2009985483
 51
91.2870406949
  0
ARC
  8
CYAN
 10
341.8966402914
 20
403.1334698901
 40
4.5000050416
 50
227.4033725875
 51
271.286966272
  0
ARC
  8
CYAN
 10
345.176565895
 20
406.7007824038
 40
9.3459962235
 50
208.2229908796
 51
227.4033675957
  0
ARC
  8
CYAN
 10
444.1424988548
 20
450.2940876893
 40
117.4617820063
 50
199.5644572878
 51
204.1266375122
  0
ARC
  8
CYAN
 10
329.9288325354
 20
409.7042576469
 40
3.7499990919
 50
19.5643111556
 51
69.0532127496
  0
ARC
  8
CYAN
 10
329.3255604143
 20
408.1282800049
 40
5.4374951009
 50
69.0533138118
 51
112.3084213077
  0
ARC
  8
CYAN
 10
328.6850000144
 20
409.6894700145
 40
3.750002324
 50
112.3083981609
 51
158.1858517097
  0
ARC
  8
CYAN
 10
299.3255628269
 20
421.4407840719
 40
27.8738800126
 50
312.2736790762
 51
338.1859156601
  0
ARC
  8
CYAN
 10
312.8855549216
 20
407.26577858
 40
8.2788063389
 50
262.4208070307
 51
308.8219686412
  0
ARC
  8
CYAN
 10
312.5849900674
 20
405.00687998
 40
5.9999991691
 50
244.5312718808
 51
262.4207910936
  0
ARC
  8
CYAN
 10
269.6702297847
 20
314.9077611009
 40
93.7974350309
 50
64.5312536848
 51
103.1669896593
  0
ARC
  8
CYAN
 10
249.3291821103
 20
401.8575909632
 40
4.5000043088
 50
103.1670747825
 51
125.9006912648
  0
ARC
  8
CYAN
 10
251.8169704305
 20
398.4209310208
 40
8.7426122668
 50
125.9006817997
 51
188.3696186597
  0
LINE
  8
CYAN
 10
243.16747
 20
397.14837
 11
264.16747
 21
394.14837
  0
LINE
  8
CYAN
 10
264.16747
 20
394.14837
 11
263.74321
 21
391.17853
  0
ARC
  8
CYAN
 10
347.4742094432
 20
403.2725916877
 40
16.6984655992
 50
215.3515431245
 51
241.9375143779
  0
ARC
  8
CYAN
 10
342.4412589639
 20
393.8319077432
 40
6.0000029123
 50
241.9378136536
 51
257.6454962686
  0
ARC
  8
CYAN
 10
339.9872804591
 20
382.628275895
 40
5.4692332041
 50
295.1187882728
 51
77.6452397747
  0
ARC
  8
CYAN
 10
340.3987155027
 20
381.7507113399
 40
4.500007563
 50
272.2522302617
 51
295.1187559986
  0
ARC
  8
CYAN
 10
342.5968343139
 20
357.027633133
 40
20.32729072
 50
95.7067216413
 51
106.0775252197
  0
ARC
  8
CYAN
 10
338.6290690496
 20
370.7945455077
 40
6.0000077422
 50
106.0775287848
 51
118.533503159
  0
ARC
  8
CYAN
 10
338.0036133901
 20
371.1840933136
 40
5.371320027
 50
114.6540487815
 51
154.0370823795
  0
ARC
  8
CYAN
 10
331.8257621114
 20
374.1922797561
 40
1.4999995038
 50
310.7650566033
 51
334.037254316
  0
ARC
  8
CYAN
 10
330.8463453004
 20
375.3283829597
 40
2.99999543
 50
287.5927150525
 51
310.7645840135
  0
ARC
  8
CYAN
 10
329.8751719177
 20
378.3912195888
 40
6.2131163359
 50
228.2024970351
 51
287.5928290769
  0
ARC
  8
CYAN
 10
327.7336299407
 20
375.9958301089
 40
3.0000037017
 50
188.9324466918
 51
228.2025602742
  0
ARC
  8
CYAN
 10
362.0323999196
 20
381.3866782688
 40
37.7198376004
 50
165.7518971031
 51
188.9323005275
  0
ARC
  8
CYAN
 10
328.3805766544
 20
389.9319621241
 40
3.0000005438
 50
148.2184204533
 51
165.7518155425
  0
ARC
  8
CYAN
 10
331.929315083
 20
387.7332568436
 40
7.1746681167
 50
97.17642198
 51
148.2186008081
  0
ARC
  8
CYAN
 10
331.4078012972
 20
391.8752250324
 40
2.9999972188
 50
35.3515857425
 51
97.176552553
  0
ARC
  8
CYAN
 10
454.9268764381
 20
400.5890368797
 40
33.499102971
 50
191.8592616107
 51
222.8853585711
  0
ARC
  8
CYAN
 10
435.3273738618
 20
382.3853597012
 40
6.7500027233
 50
222.8851928834
 51
243.8926907611
  0
ARC
  8
CYAN
 10
409.0755837355
 20
328.8157638034
 40
52.9061628381
 50
47.4895837229
 51
63.892845037
  0
ARC
  8
CYAN
 10
406.0352922359
 20
332.2289238816
 40
52.6413259864
 50
15.9037342231
 51
42.5338034994
  0
ARC
  8
CYAN
 10
460.9894446391
 20
347.8869075208
 40
4.5000015971
 50
195.9038472479
 51
235.0593579291
  0
ARC
  8
CYAN
 10
461.1755641101
 20
348.1532806039
 40
4.8249555582
 50
235.0592217144
 51
321.6589165025
  0
ARC
  8
CYAN
 10
462.6069297172
 20
347.0211792937
 40
3.0000005238
 50
321.6590577822
 51
354.6908415251
  0
ARC
  8
CYAN
 10
423.4672297116
 20
350.6584438764
 40
42.3083432791
 50
354.6907415365
 51
13.8183951298
  0
ARC
  8
CYAN
 10
459.4530201883
 20
359.5096271018
 40
5.2500033174
 50
13.8186719481
 51
20.5958387062
  0
ARC
  8
CYAN
 10
422.1454483589
 20
345.4899920844
 40
45.1048033021
 50
20.5955212131
 51
55.8325824668
  0
ARC
  8
CYAN
 10
450.4253596746
 20
387.153560419
 40
5.2500009414
 50
199.8272143088
 51
235.8325671867
  0
ARC
  8
CYAN
 10
456.0755598213
 20
389.1907779888
 40
11.2562491151
 50
150.018351309
 51
199.8271580295
  0
ARC
  8
CYAN
 10
454.6908642453
 20
387.7082323585
 40
10.9770464421
 50
98.4619689533
 51
139.6472392449
  0
ARC
  8
CYAN
 10
448.66079338
 20
419.8129344087
 40
21.7009616095
 50
281.7379856889
 51
3.3096551884
  0
ARC
  8
CYAN
 10
460.2005609657
 20
420.690777897
 40
10.1319411773
 50
2.1211084832
 51
47.2089419128
  0
ARC
  8
CYAN
 10
473.197378748
 20
434.7305026276
 40
8.9999992098
 50
216.1970186491
 51
227.2091309258
  0
ARC
  8
CYAN
 10
495.263065571
 20
450.8782677795
 40
36.3430943962
 50
192.8173474986
 51
216.1968746985
  0
ARC
  8
CYAN
 10
453.07556
 20
440.6885
 40
7.0772749133
 50
17.4923806805
 51
162.5076193195
  0
ARC
  8
CYAN
 10
-119.2366133892
 20
627.5862895586
 40
594.9795905501
 50
341.2718948762
 51
341.9076615932
  0
ARC
  8
CYAN
 10
454.1845632242
 20
433.1803032958
 40
10.4999989355
 50
161.2715352679
 51
165.7670728625
  0
ARC
  8
CYAN
 10
438.2255578656
 20
437.2282798882
 40
5.964385855
 50
200.2285422835
 51
345.7673770803
  0
ARC
  8
CYAN
 10
436.8514921766
 20
436.7219292173
 40
4.4999926293
 50
182.5966365217
 51
200.2283555425
  0
ARC
  8
CYAN
 10
336.5255626681
 20
432.171758201
 40
95.9290678464
 50
2.5968148361
 51
11.3591421523
  0
ARC
  8
CYAN
 10
420.063211631
 20
448.0534290373
 40
10.9354344475
 50
15.9898442867
 51
102.9057762912
  0
ARC
  8
CYAN
 10
419.29592589
 20
451.402082836
 40
7.5000000249
 50
102.9058781113
 51
128.5153867564
  0
ARC
  8
CYAN
 10
366.2769275688
 20
518.0195238348
 40
77.6404582086
 50
285.223481483
 51
308.5153159451
  0
ARC
  8
CYAN
 10
388.6335074136
 20
435.8667334111
 40
7.5000000751
 50
105.223501512
 51
124.1926298376
  0
ARC
  8
CYAN
 10
400.2652496436
 20
418.7463993069
 40
28.1979049726
 50
124.1926202189
 51
181.383095708
  0
LINE
  8
CYAN
 10
372.07556
 20
418.06578
 11
415.57556
 21
418.06578
  0
LINE
  8
CYAN
 10
415.57556
 20
418.06578
 11
415.57556
 21
415.06578
  0
LINE
  8
CYAN
 10
415.57556
 20
415.06578
 11
372.07556
 21
415.06578
  0
ARC
  8
CYAN
 10
395.1592381775
 20
414.2880778832
 40
23.0967750733
 50
178.0704027685
 51
189.4089135007
  0
ARC
  8
CYAN
 10
425.5541120365
 20
422.5071842106
 40
54.5168725733
 50
192.7103713536
 51
206.0500342618
  0
ARC
  8
CYAN
 10
382.824773
 20
402.313419
 40
7.2868004771
 50
210.9510214345
 51
292.1790809197
  0
ARC
  8
CYAN
 10
391.7771968947
 20
385.7850402336
 40
11.5811558383
 50
49.0174265228
 51
122.3774044258
  0
ARC
  8
CYAN
 10
402.3236972356
 20
397.924847989
 40
4.5000008917
 50
229.017357209
 51
279.9181167472
  0
ARC
  8
CYAN
 10
400.9870461048
 20
405.5691485426
 40
12.2602822783
 50
279.9181915267
 51
301.1096578386
  0
ARC
  8
CYAN
 10
404.9966068032
 20
398.9249472758
 40
4.4999995858
 50
301.1097167892
 51
319.7633505325
  0
ARC
  8
CYAN
 10
414.678016593
 20
390.7329101924
 40
8.1822386667
 50
33.7734289409
 51
139.7634011493
  0
ARC
  8
CYAN
 10
417.7388531254
 20
392.779902571
 40
4.4999977626
 50
11.8592630688
 51
33.7734724742
  0
ARC
  8
CYAN
 10
147.9112631056
 20
238.6550614358
 40
47.3716200752
 50
240.2139629503
 51
276.2586347743
  0
ARC
  8
CYAN
 10
130.01306
 20
497.94078
 40
307.2417932692
 50
274.3048438765
 51
279.9451888214
  0
ARC
  8
CYAN
 10
173.32556
 20
241.44078
 40
47.144226847
 50
281.9356025433
 51
301.6672164294
  0
ARC
  8
CYAN
 10
193.95056
 20
203.94078
 40
4.8894018039
 50
327.5288077092
 51
32.4711922908
  0
ARC
  8
CYAN
 10
194.32556
 20
197.56578
 40
9.75
 50
67.380135052
 51
112.619864948
  0
ARC
  8
CYAN
 10
145.05056
 20
395.19078
 40
194.0410169268
 50
272.3702710578
 51
283.5689497308
  0
ARC
  8
CYAN
 10
150.000558361
 20
231.9407804177
 40
30.7789909787
 50
235.6685927089
 51
275.7337496462
  0
ARC
  8
CYAN
 10
136.8716954185
 20
212.7172460434
 40
7.5000022549
 50
198.6626452605
 51
235.6686560264
  0
ARC
  8
CYAN
 10
188.1161694294
 20
230.0252030873
 40
61.5884621487
 50
182.278965582
 51
198.6625470372
  0
LINE
  8
CYAN
 10
126.57642
 20
227.57614
 11
117.57642
 21
228.32614
  0
LINE
  8
CYAN
 10
117.57642
 20
228.32614
 11
117.82556
 21
231.31578
  0
LINE
  8
CYAN
 10
117.82556
 20
231.31578
 11
126.82556
 21
230.56578
  0
ARC
  8
CYAN
 10
151.20056
 20
232.44078
 40
24.4470090195
 50
122.4711922908
 51
184.398705355
  0
ARC
  8
CYAN
 10
153.07556
 20
204.19078
 40
51.125
 50
72.9384687801
 51
107.0615312199
  0
ARC
  8
CYAN
 10
148.575544326
 20
160.8157862015
 40
94.2884508681
 50
58.7622754328
 51
78.0643873588
  0
ARC
  8
CYAN
 10
195.1389642973
 20
237.5869685748
 40
4.4999965858
 50
43.9796683361
 51
58.7625420696
  0
ARC
  8
CYAN
 10
201.0755597927
 20
243.3157799871
 40
3.7500001581
 50
223.9794216248
 51
323.1301044119
  0
ARC
  8
CYAN
 10
198.95056
 20
243.94078
 40
5.8763296368
 50
330.708637829
 51
51.911227119
  0
ARC
  8
CYAN
 10
163.57556
 20
194.94078
 40
66.3071687301
 50
53.9726266149
 51
72.8972710309
  0
ARC
  8
CYAN
 10
147.7710142902
 20
157.8498693136
 40
106.4885447259
 50
70.6381061539
 51
91.1813400044
  0
ARC
  8
CYAN
 10
144.57556
 20
236.44078
 40
27.8929314523
 50
87.9454271191
 51
120.1270598168
  0
ARC
  8
CYAN
 10
143.70056
 20
239.94078
 40
24.4470090195
 50
122.4711922908
 51
147.5288077092
  0
ARC
  8
CYAN
 10
140.5973686755
 20
238.1345672862
 40
23.0207491703
 50
139.5640169444
 51
168.4039932303
  0
ARC
  8
CYAN
 10
113.6383339222
 20
243.6664932387
 40
4.5000022651
 50
287.6905994541
 51
348.4041314959
  0
ARC
  8
CYAN
 10
113.888757172
 20
243.7384489787
 40
4.5000007777
 50
239.4177431963
 51
284.3726348684
  0
LINE
  8
CYAN
 10
111.59927
 20
239.8644
 11
104.00506
 21
244.35241
  0
ARC
  8
CYAN
 10
101.7155741484
 20
240.4783608532
 40
4.5000002507
 50
59.4177587589
 51
103.9916748833
  0
ARC
  8
CYAN
 10
102.2763684866
 20
238.2277687436
 40
6.8194086092
 50
103.9917240507
 51
155.4071849196
  0
ARC
  8
CYAN
 10
171.45056
 20
222.09078
 40
77.72670873
 50
165.8698950535
 51
177.0685737266
  0
ARC
  8
CYAN
 10
101.78879144
 20
224.36724792
 40
8.1423624455
 50
167.9594249222
 51
261.4308821402
  0
ARC
  8
CYAN
 10
99.6381034419
 20
263.5657817955
 40
47.2593006134
 50
271.1366191771
 51
273.5967815034
  0
ARC
  8
CYAN
 10
102.0382879575
 20
225.3818439174
 40
9.0000011219
 50
273.5967295799
 51
291.0158218421
  0
LINE
  8
CYAN
 10
105.26592
 20
216.98051
 11
110.2572
 21
218.89808
  0
ARC
  8
CYAN
 10
111.8255695679
 20
214.8157791673
 40
4.3732097125
 50
59.0363565705
 51
111.0161588
  0
ARC
  8
CYAN
 10
109.3255584297
 20
212.3157836177
 40
7.850157304
 50
354.1619545506
 51
52.765140917
  0
ARC
  8
CYAN
 10
121.6116593783
 20
211.0596022441
 40
4.4999952524
 50
174.1624381374
 51
188.0467263386
  0
ARC
  8
CYAN
 10
138.7609025844
 20
213.4838741141
 40
21.8197422666
 50
188.0463086198
 51
219.3649667022
  0
ARC
  8
CYAN
 10
128.8496875068
 20
205.3528436539
 40
8.9999980936
 50
219.3649146463
 51
240.213917449
  0
ARC
  8
CYAN
 10
233.2663509073
 20
177.394720936
 40
26.4188219268
 50
118.7095241361
 51
153.0757586964
  0
ARC
  8
CYAN
 10
224.6172345676
 20
181.6074579026
 40
16.8004048583
 50
152.5289919393
 51
178.8455349073
  0
ARC
  8
CYAN
 10
204.8208408983
 20
182.0064022413
 40
3.0000082408
 50
317.4728970634
 51
358.8453722597
  0
ARC
  8
CYAN
 10
202.5755621722
 20
184.0657809091
 40
6.0466977647
 50
267.9455244834
 51
317.4728619403
  0
ARC
  8
CYAN
 10
202.4663260584
 20
181.0210426796
 40
3.0000006327
 50
250.2949270234
 51
267.9457729326
  0
ARC
  8
CYAN
 10
216.4504434076
 20
220.065822175
 40
44.4734902842
 50
249.9320883767
 51
250.2947305858
  0
LINE
  8
CYAN
 10
201.19009
 20
178.29247
 11
193.43734
 21
182.81272
  0
ARC
  8
CYAN
 10
191.3255552316
 20
179.1907785789
 40
4.1926238283
 50
59.7555370211
 51
153.4349023103
  0
ARC
  8
CYAN
 10
224.70056
 20
165.84078
 40
40.1256308362
 50
157.7014164295
 51
168.9000951025
  0
ARC
  8
CYAN
 10
259.9505606305
 20
162.3157884967
 40
75.4682252867
 50
171.4270080864
 51
180.0858193124
  0
ARC
  8
CYAN
 10
191.9824098918
 20
162.2139801535
 40
7.4999982996
 50
180.0857921044
 51
250.2873733265
  0
ARC
  8
CYAN
 10
193.2652190423
 20
165.7942201197
 40
11.3031177471
 50
250.2873378787
 51
291.2297751447
  0
ARC
  8
CYAN
 10
195.7286885701
 20
159.45278921
 40
4.4999987494
 50
291.2297924362
 51
306.6093615347
  0
ARC
  8
CYAN
 10
201.2630607615
 20
152.00328002
 40
4.7803279003
 50
56.394874474
 51
126.6092622346
  0
ARC
  8
CYAN
 10
201.4182109446
 20
152.2367486956
 40
4.5000080797
 50
15.4276910914
 51
56.3949153997
  0
ARC
  8
CYAN
 10
170.4505556675
 20
143.6908094321
 40
36.6252123788
 50
1.3205960123
 51
15.4275727178
  0
ARC
  8
CYAN
 10
219.0628589223
 20
144.811478214
 40
12.0000066568
 50
181.3206799107
 51
193.6287946662
  0
ARC
  8
CYAN
 10
229.7486317809
 20
147.402320413
 40
22.9953786325
 50
193.6287859779
 51
242.9401734494
  0
ARC
  8
CYAN
 10
223.3818486942
 20
134.9389804444
 40
8.999994749
 50
242.9401337638
 51
259.4742304465
  0
ARC
  8
CYAN
 10
235.5755557832
 20
200.565779967
 40
75.7500008027
 50
259.4742559211
 51
281.4211894062
  0
ARC
  8
CYAN
 10
242.8989201292
 20
179.1545800613
 40
53.3935351108
 50
278.2663316293
 51
312.5429371204
  0
ARC
  8
CYAN
 10
275.9053206284
 20
141.4810494394
 40
3.5147729761
 50
331.7193083988
 51
124.8077824043
  0
ARC
  8
CYAN
 10
267.4771899435
 20
153.6039699725
 40
11.2500023047
 50
287.0461136976
 51
304.8079460904
  0
ARC
  8
CYAN
 10
197.8881082786
 20
380.5657918214
 40
248.6406273595
 50
280.4710101054
 51
287.0461354813
  0
ARC
  8
CYAN
 10
237.2306149675
 20
204.2904401681
 40
68.4745765776
 50
263.8220724441
 51
274.8966889453
  0
ARC
  8
CYAN
 10
239.078559903
 20
175.7252237167
 40
40.572475118
 50
242.7133448108
 51
256.8693680755
  0
ARC
  8
CYAN
 10
233.5824630854
 20
152.4553431749
 40
18.3097077008
 50
184.3524851277
 51
224.3003211273
  0
ARC
  8
CYAN
 10
464.1911524325
 20
170.8899030059
 40
249.6539183544
 50
181.3716423858
 51
184.5544473594
  0
LINE
  8
CYAN
 10
214.60877
 20
164.91384
 11
201.10877
 21
165.66384
  0
LINE
  8
CYAN
 10
201.10877
 20
165.66384
 11
201.27518
 21
168.65922
  0
LINE
  8
CYAN
 10
201.27518
 20
168.65922
 11
214.77518
 21
167.90922
  0
ARC
  8
CYAN
 10
316.8484737409
 20
147.4214151884
 40
104.1091131511
 50
163.6765568574
 51
168.6505937921
  0
LINE
  8
CYAN
 10
216.93596
 20
176.68226
 11
218.70582
 21
182.72554
  0
ARC
  8
CYAN
 10
232.4051052208
 20
178.7135053437
 40
14.2746922084
 50
107.6560479228
 51
163.6765642269
  0
ARC
  8
CYAN
 10
235.57556
 20
155.19078
 40
37.875
 50
78.578813725
 51
101.421186275
  0
ARC
  8
CYAN
 10
221.77556
 20
117.31578
 40
77.9659541082
 50
55.8207594762
 51
74.1454535676
  0
ARC
  8
CYAN
 10
286.5933775926
 20
214.4763723161
 40
38.8389359637
 50
237.2378178224
 51
255.5738215631
  0
ARC
  8
CYAN
 10
276.6471204935
 20
180.5426814038
 40
3.6905373745
 50
274.1989290445
 51
47.0651546552
  0
ARC
  8
CYAN
 10
259.3235284603
 20
166.6982188345
 40
25.8323170234
 50
39.8314589031
 51
57.8351095418
  0
ARC
  8
CYAN
 10
233.2563286367
 20
140.9984704317
 40
62.0340239379
 50
50.0668481148
 51
94.7906343286
  0
ARC
  8
CYAN
 10
233.9362755046
 20
169.6550616514
 40
33.6746377504
 50
100.0227650127
 51
113.3757234553
  0
ARC
  8
CYAN
 10
411.0755608213
 20
214.6282780118
 40
33.3860581384
 50
191.1116100448
 51
213.7793095965
  0
ARC
  8
CYAN
 10
401.70056
 20
212.19078
 40
24.4470090195
 50
221.2686030008
 51
249.3410899367
  0
ARC
  8
CYAN
 10
410.5541
 20
279.20478
 40
91.5725487334
 50
258.9963833989
 51
287.4902011667
  0
ARC
  8
CYAN
 10
417.0228728667
 20
257.0522814091
 40
68.5017926881
 50
287.898424753
 51
304.4521552105
  0
ARC
  8
CYAN
 10
452.604130297
 20
202.3979229703
 40
3.662610302
 50
329.9848649185
 51
18.5939488065
  0
ARC
  8
CYAN
 10
450.4900335533
 20
199.2434097462
 40
7.0626475417
 50
37.7345642088
 51
134.0942022312
  0
ARC
  8
CYAN
 10
413.8677033314
 20
275.1979207496
 40
77.6509243458
 50
271.2602666466
 51
294.100500337
  0
ARC
  8
CYAN
 10
410.68556
 20
224.41578
 40
27.2916580662
 50
229.8154194273
 51
280.3217462164
  0
ARC
  8
CYAN
 10
410.51306
 20
216.97203
 40
21.9953164404
 50
175.8447861944
 51
217.5537022736
  0
LINE
  8
CYAN
 10
388.57556
 20
218.56578
 11
388.57556
 21
219.31578
  0
LINE
  8
CYAN
 10
388.57556
 20
219.31578
 11
379.57556
 21
219.31578
  0
LINE
  8
CYAN
 10
379.57556
 20
219.31578
 11
379.57556
 21
222.31578
  0
LINE
  8
CYAN
 10
379.57556
 20
222.31578
 11
388.57556
 21
222.31578
  0
ARC
  8
CYAN
 10
434.1102109077
 20
221.3024637821
 40
45.5459245492
 50
154.2833683205
 51
178.7251651179
  0
ARC
  8
CYAN
 10
402.2859270588
 20
234.2151682353
 40
11.478751801
 50
98.5691463343
 51
143.3583667298
  0
ARC
  8
CYAN
 10
416.6745173691
 20
188.0747003069
 40
59.7026018918
 50
61.047558771
 51
105.643591137
  0
ARC
  8
CYAN
 10
561.5241237601
 20
466.5879075202
 40
254.2501624985
 50
242.8680494144
 51
244.0018482314
  0
ARC
  8
CYAN
 10
451.8206724761
 20
241.7277733833
 40
4.0565518724
 50
244.5199992054
 51
43.0812606757
  0
ARC
  8
CYAN
 10
423.1402145646
 20
208.2448127477
 40
48.1210091183
 50
48.8846003268
 51
77.4811901462
  0
ARC
  8
CYAN
 10
415.6393848839
 20
187.8077998224
 40
69.7580077161
 50
75.1046968686
 51
108.8722135795
  0
ARC
  8
CYAN
 10
401.3643499489
 20
233.9924999498
 40
21.4864252672
 50
112.6914692505
 51
156.2895471115
  0
ARC
  8
CYAN
 10
391.3053117969
 20
238.410339167
 40
10.4999994658
 50
156.2897531578
 51
170.1862046751
  0
ARC
  8
CYAN
 10
369.4505633696
 20
242.1907861526
 40
11.6793108984
 50
312.3974052383
 51
350.185928297
  0
ARC
  8
CYAN
 10
373.9505524324
 20
236.5909744561
 40
4.5323810054
 50
294.323411126
 51
318.128478178
  0
ARC
  8
CYAN
 10
374.5817208498
 20
235.1946200011
 40
3.0000039843
 50
245.8324483777
 51
294.3233552678
  0
ARC
  8
CYAN
 10
352.4334261273
 20
185.8380340434
 40
51.0982356962
 50
65.8322900413
 51
81.668863395
  0
ARC
  8
CYAN
 10
359.4025706052
 20
233.4287002997
 40
2.9999977921
 50
81.6689030969
 51
151.0300882447
  0
ARC
  8
CYAN
 10
360.2838874811
 20
232.9407726726
 40
4.0073670417
 50
151.0299563173
 51
171.0272568527
  0
ARC
  8
CYAN
 10
424.1866195592
 20
225.4581294461
 40
68.3436712652
 50
173.1869229394
 51
192.1568062471
  0
ARC
  8
CYAN
 10
360.8255606719
 20
211.4607796781
 40
3.4725393276
 50
186.5315044803
 51
302.2763793457
  0
ARC
  8
CYAN
 10
365.8839328799
 20
203.4519165421
 40
6.0000008876
 50
109.531624276
 51
122.2763723286
  0
ARC
  8
CYAN
 10
384.6005928387
 20
150.6907896057
 40
61.9825863549
 50
103.0777911073
 51
109.5317857842
  0
ARC
  8
CYAN
 10
384.600467241
 20
150.6907608541
 40
61.9825859414
 50
100.2470279578
 51
103.0776720041
  0
ARC
  8
CYAN
 10
374.2413207605
 20
207.9945313684
 40
3.750000296
 50
62.9047077144
 51
100.246932136
  0
ARC
  8
CYAN
 10
373.8997315653
 20
207.3268379234
 40
4.4999987723
 50
11.1117227916
 51
62.9049069666
  0
ARC
  8
CYAN
 10
299.4017316046
 20
188.1450457193
 40
11.2499995689
 50
244.407075253
 51
261.0513342164
  0
ARC
  8
CYAN
 10
289.6375153247
 20
126.1373665226
 40
51.5217472518
 50
69.3354307328
 51
81.0512176059
  0
ARC
  8
CYAN
 10
308.692661135
 20
179.9835408424
 40
5.7064324463
 50
261.1968727391
 51
351.9669554665
  0
ARC
  8
CYAN
 10
324.7400685545
 20
177.7187864725
 40
10.499998291
 50
143.4668306106
 51
171.9669573596
  0
ARC
  8
CYAN
 10
360.4661214148
 20
151.2509004825
 40
54.9623401294
 50
132.4294179664
 51
143.4668498967
  0
ARC
  8
CYAN
 10
330.9742195748
 20
183.5153797774
 40
11.2499974982
 50
102.8401114475
 51
132.4294520087
  0
ARC
  8
CYAN
 10
338.4575959644
 20
150.683549642
 40
44.9238744984
 50
87.297753116
 51
102.8401021558
  0
ARC
  8
CYAN
 10
343.1430179903
 20
158.7405884535
 40
36.9062949555
 50
82.3194122452
 51
93.9891140452
  0
ARC
  8
CYAN
 10
331.4801370204
 20
97.0591767385
 40
99.648222003
 50
66.9001707245
 51
80.4132873907
  0
ARC
  8
CYAN
 10
341.8205848165
 20
124.290767406
 40
70.5528181327
 50
60.2378744266
 51
65.9479335431
  0
ARC
  8
CYAN
 10
369.08392374
 20
173.9537763075
 40
13.9420218841
 50
34.5490103047
 51
56.1841206602
  0
ARC
  8
CYAN
 10
390.4508632694
 20
188.6657530342
 40
11.9999973908
 50
214.5488523664
 51
221.5111202629
  0
ARC
  8
CYAN
 10
379.6648416369
 20
179.1193521153
 40
2.4038921243
 50
243.0209314077
 51
41.5111637653
  0
ARC
  8
CYAN
 10
373.1302590601
 20
166.2830203798
 40
12.000002553
 50
63.0207160301
 51
72.9701419346
  0
ARC
  8
CYAN
 10
253.928042813
 20
-222.8842153924
 40
419.0138914522
 50
72.9701344858
 51
77.015450482
  0
ARC
  8
CYAN
 10
344.2312187104
 20
144.1223498839
 40
41.4719945349
 50
84.6812009624
 51
105.6043281534
  0
ARC
  8
CYAN
 10
339.1624046154
 20
170.0605130769
 40
15.2707949681
 50
113.4903012342
 51
133.8898338178
  0
ARC
  8
CYAN
 10
359.7005565621
 20
160.815769581
 40
37.132577785
 50
146.9518587615
 51
176.5260930458
  0
LINE
  8
CYAN
 10
322.63621
 20
163.06578
 11
312.07556
 21
163.06578
  0
LINE
  8
CYAN
 10
312.07556
 20
163.06578
 11
312.07556
 21
160.06578
  0
LINE
  8
CYAN
 10
312.07556
 20
160.06578
 11
322.57556
 21
160.06578
  0
ARC
  8
CYAN
 10
340.7105612923
 20
156.7507781343
 40
18.4354959044
 50
169.6409425302
 51
259.7765798905
  0
ARC
  8
CYAN
 10
347.0362690642
 20
181.7621999285
 40
44.2086402036
 50
257.461143796
 51
291.2728046382
  0
ARC
  8
CYAN
 10
399.9755439459
 20
59.190774238
 40
89.3504358018
 50
105.0948410889
 51
114.3922005699
  0
ARC
  8
CYAN
 10
377.4883759116
 20
142.5617817517
 40
3.0000008286
 50
28.5187254786
 51
105.0948997688
  0
ARC
  8
CYAN
 10
376.5755593421
 20
142.0657781765
 40
4.0388721567
 50
291.8014277592
 51
28.5187039432
  0
ARC
  8
CYAN
 10
314.2103340701
 20
283.7953213228
 40
158.8806596996
 50
282.30694556
 51
293.7013776518
  0
ARC
  8
CYAN
 10
339.78056
 20
173.64078
 40
45.8318955532
 50
251.9445664183
 51
280.4272839132
  0
ARC
  8
CYAN
 10
331.0130562423
 20
147.9720338071
 40
18.7136391648
 50
196.1439731715
 51
253.108318651
  0
ARC
  8
CYAN
 10
317.3599204375
 20
144.0198966227
 40
4.5000011495
 50
178.6170849367
 51
196.143874303
  0
ARC
  8
CYAN
 10
305.6644453088
 20
144.3022401812
 40
7.198881548
 50
358.6170704897
 51
50.860562989
  0
ARC
  8
CYAN
 10
308.3148201822
 20
147.558939972
 40
3.0000030672
 50
50.8606014924
 51
111.6446917767
  0
ARC
  8
CYAN
 10
271.636873185
 20
239.9863777845
 40
96.4389382814
 50
284.3725822209
 51
291.6446438001
  0
ARC
  8
CYAN
 10
293.088041579
 20
152.1315123532
 40
6.0963205725
 50
214.6929342373
 51
294.0815206112
  0
ARC
  8
CYAN
 10
461.56466
 20
161.1137
 40
173.9353963836
 50
175.8946684742
 51
184.1053315258
  0
ARC
  8
CYAN
 10
292.5871954012
 20
173.9175037028
 40
4.5253246907
 50
64.4070715345
 51
184.4577196582
  0
ARC
  8
CYAN
 10
413.7891945946
 20
284.2794124324
 40
12.1187502997
 50
50.0210865513
 51
81.5234228128
  0
ARC
  8
CYAN
 10
413.4086102492
 20
335.9921699663
 40
39.7854462207
 50
251.4715195707
 51
273.1222106334
  0
ARC
  8
CYAN
 10
418.9246601251
 20
304.4196393589
 40
19.1722912166
 50
183.3744346988
 51
198.7119381852
  0
ARC
  8
CYAN
 10
398.2882081813
 20
303.2028511457
 40
1.5000023761
 50
3.3743307294
 51
112.2039648337
  0
ARC
  8
CYAN
 10
368.3178786672
 20
376.6267423812
 40
77.805031861
 50
287.1028387569
 51
292.2044197957
  0
ARC
  8
CYAN
 10
389.6554268637
 20
307.2802097531
 40
5.2500006738
 50
248.7761462703
 51
287.1027544523
  0
ARC
  8
CYAN
 10
352.9753380209
 20
212.8298677285
 40
96.0727313565
 50
68.776162831
 51
79.6003124879
  0
ARC
  8
CYAN
 10
367.6100778639
 20
292.5707698748
 40
15.0000042199
 50
79.6002943876
 51
107.1106376619
  0
ARC
  8
CYAN
 10
383.7710939343
 20
240.0731968249
 40
69.9288092001
 50
107.1106250559
 51
128.1488999225
  0
ARC
  8
CYAN
 10
334.5283610804
 20
305.8017600454
 40
12.321926891
 50
245.4194340732
 51
299.3910271463
  0
ARC
  8
CYAN
 10
330.9626689754
 20
298.006641176
 40
3.7499937149
 50
196.7084710626
 51
245.4195144177
  0
ARC
  8
CYAN
 10
369.8707300123
 20
309.6859098946
 40
44.3731709842
 50
176.602252955
 51
196.708496375
  0
LINE
  8
CYAN
 10
325.57556
 20
312.31578
 11
346.57556
 21
312.31578
  0
LINE
  8
CYAN
 10
346.57556
 20
312.31578
 11
346.57556
 21
315.31578
  0
LINE
  8
CYAN
 10
346.57556
 20
315.31578
 11
325.57556
 21
315.31578
  0
ARC
  8
CYAN
 10
531.6938419827
 20
313.3935265134
 40
206.1272452297
 50
175.6525765296
 51
179.4656766104
  0
ARC
  8
CYAN
 10
329.8988930449
 20
328.7345442665
 40
3.750002827
 50
113.3174067864
 51
175.6525724177
  0
ARC
  8
CYAN
 10
334.1068117163
 20
318.9720299488
 40
14.3807725709
 50
63.267912406
 51
113.3174042199
  0
ARC
  8
CYAN
 10
391.0505999146
 20
436.253265722
 40
115.9953364507
 50
244.2053424555
 51
256.4290664569
  0
ARC
  8
CYAN
 10
367.3521291871
 20
338.077710358
 40
15.0000039553
 50
256.4291323471
 51
279.7784782389
  0
ARC
  8
CYAN
 10
353.2005684295
 20
420.1907824686
 40
98.3236097541
 50
279.7784393976
 51
292.8669895846
  0
ARC
  8
CYAN
 10
392.865676489
 20
326.1392002975
 40
3.7499955817
 50
57.4475867958
 51
112.8670539319
  0
ARC
  8
CYAN
 10
384.9644511869
 20
313.7617499471
 40
18.4343627267
 50
38.6650821649
 51
57.4476066929
  0
ARC
  8
CYAN
 10
402.2862589568
 20
327.6217962109
 40
3.7499990367
 50
218.6649032483
 51
275.4742066247
  0
ARC
  8
CYAN
 10
404.3255681495
 20
306.3428187192
 40
17.6264755341
 50
66.6626254528
 51
95.4743504739
  0
ARC
  8
CYAN
 10
409.1927856161
 20
317.6241142463
 40
5.3400018888
 50
21.9500844905
 51
66.6626038324
  0
ARC
  8
CYAN
 10
-2398.5255737748
 20
-813.9223799304
 40
3032.4970599458
 50
21.7398809832
 51
21.9500667075
  0
ARC
  8
CYAN
 10
423.8583321407
 20
311.5168683782
 40
6.0000050527
 50
201.7399441009
 51
263.9646559038
  0
ARC
  8
CYAN
 10
420.2287260689
 20
277.1872518597
 40
28.5209539511
 50
45.3989587861
 51
83.9646444958
  0
ARC
  8
CYAN
 10
442.8882916002
 20
300.1646019661
 40
3.7500009151
 50
225.398991259
 51
288.2529576463
  0
ARC
  8
CYAN
 10
462.7505553483
 20
239.9407790805
 40
59.66465326
 50
94.1101621233
 51
108.2529378674
  0
ARC
  8
CYAN
 10
458.2053539507
 20
303.1923325833
 40
3.7499970683
 50
274.11012291
 51
332.2498360362
  0
ARC
  8
CYAN
 10
515.7677416523
 20
272.9071393947
 40
61.29323013
 50
145.8651830109
 51
152.249881002
  0
ARC
  8
CYAN
 10
467.5172970754
 20
305.6179287008
 40
2.9999960553
 50
82.0400331279
 51
145.865245894
  0
ARC
  8
CYAN
 10
467.4864622139
 20
305.3973879002
 40
3.2226820077
 50
10.9892306961
 51
82.040086028
  0
ARC
  8
CYAN
 10
450.9143514979
 20
301.8225325891
 40
20.175405888
 50
357.8504074182
 51
11.9839586076
  0
ARC
  8
CYAN
 10
440.9505567061
 20
303.1907678412
 40
30.1998575623
 50
333.7190217443
 51
355.9650959343
  0
ARC
  8
CYAN
 10
459.9590589109
 20
293.8040290819
 40
8.9999985862
 50
286.5429192081
 51
333.7190370264
  0
ARC
  8
CYAN
 10
481.3880535932
 20
221.6595277352
 40
66.25975751
 50
106.5429381419
 51
112.3941759694
  0
ARC
  8
CYAN
 10
460.4306270267
 20
272.5207109461
 40
11.249997595
 50
112.39414012
 51
137.4271435725
  0
ARC
  8
CYAN
 10
448.3805582325
 20
283.5907796996
 40
5.1130883044
 50
241.8661678003
 51
317.4271963639
  0
ARC
  8
CYAN
 10
442.4330986616
 20
272.4679375276
 40
7.4999959072
 50
61.8663569431
 51
71.1001451226
  0
ARC
  8
CYAN
 10
418.2005415422
 20
201.6907847663
 40
82.3105712127
 50
71.099933237
 51
79.9421069586
  0
ARC
  8
CYAN
 10
433.885339237
 20
290.1211305094
 40
7.500001255
 50
212.6026202244
 51
259.9421434271
  0
ARC
  8
CYAN
 10
398.3255528306
 20
268.8157889573
 40
33.9576926482
 50
30.557666085
 51
46.7898914437
  0
ARC
  8
CYAN
 10
137.3255589617
 20
315.3157830304
 40
35.2579788728
 50
179.737543093
 51
218.0887777977
  0
ARC
  8
CYAN
 10
115.20056
 20
299.44078
 40
8.1336492425
 50
226.2453642668
 51
313.7546357332
  0
ARC
  8
CYAN
 10
99.45056
 20
308.94078
 40
26.3302345223
 50
324.2726017772
 51
342.5972958686
  0
ARC
  8
CYAN
 10
134.0187428319
 20
296.3271424779
 40
10.5654336192
 50
109.0195824933
 51
153.3522678382
  0
ARC
  8
CYAN
 10
112.081620364
 20
352.9446902768
 40
50.1625465548
 50
291.6342471893
 51
322.8665514322
  0
ARC
  8
CYAN
 10
153.2686344838
 20
321.7573791623
 40
1.4999979688
 50
54.4027132021
 51
142.8664648564
  0
ARC
  8
CYAN
 10
161.8419673465
 20
333.7337403339
 40
13.2287244227
 50
234.4028604312
 51
291.2545994541
  0
ARC
  8
CYAN
 10
167.1813197354
 20
320.0068801166
 40
1.5000017733
 50
21.1796142888
 51
111.2545916905
  0
ARC
  8
CYAN
 10
183.9155638339
 20
326.4907770013
 40
16.4464698676
 50
201.1794849608
 51
262.7573878536
  0
ARC
  8
CYAN
 10
181.6530301289
 20
308.6874998698
 40
1.4999987372
 50
6.6490114754
 51
82.75725519
  0
ARC
  8
CYAN
 10
193.1071131557
 20
310.022747869
 40
10.0316492458
 50
186.649211542
 51
255.3829909024
  0
ARC
  8
CYAN
 10
193.5755744252
 20
318.690779635
 40
18.6182893451
 50
260.7273542299
 51
276.3734147989
  0
ARC
  8
CYAN
 10
195.8088633901
 20
298.6968283851
 40
1.5000024856
 50
32.6845588823
 51
96.3734684259
  0
ARC
  8
CYAN
 10
216.4505660004
 20
311.9407732813
 40
23.0251267305
 50
212.6846879654
 51
230.8513224145
  0
ARC
  8
CYAN
 10
203.3345068794
 20
295.8294508591
 40
2.2500041783
 50
230.851298627
 51
278.3643684251
  0
ARC
  8
CYAN
 10
202.9505450105
 20
298.4407744201
 40
4.8894051439
 50
278.3645349655
 51
302.4713755865
  0
ARC
  8
CYAN
 10
230.67556
 20
266.44078
 40
37.5103402411
 50
105.6201830308
 51
132.0014044552
  0
ARC
  8
CYAN
 10
231.8255117532
 20
227.9407773208
 40
75.4682213871
 50
87.78399277
 51
98.5729618405
  0
ARC
  8
CYAN
 10
234.8596344392
 20
306.3503189223
 40
3.000002211
 50
267.7841186839
 51
294.1525943067
  0
ARC
  8
CYAN
 10
237.2452854692
 20
301.0302322471
 40
2.8304911703
 50
13.0880131293
 51
114.152559677
  0
ARC
  8
CYAN
 10
242.1938059377
 20
302.1807058669
 40
2.2500052993
 50
193.0882146869
 51
236.3093951533
  0
ARC
  8
CYAN
 10
243.4505646027
 20
304.0657789621
 40
4.5156052013
 50
236.3092079416
 51
278.2752502095
  0
ARC
  8
CYAN
 10
243.5607464066
 20
303.3081468366
 40
3.7500031719
 50
278.2754098042
 51
344.4427206668
  0
ARC
  8
CYAN
 10
13.20056133
 20
367.4407857688
 40
242.8709145221
 50
344.44271361
 51
349.5922872923
  0
ARC
  8
CYAN
 10
249.07556
 20
323.94078
 40
3.0233466556
 50
352.8749836511
 51
187.1250163489
  0
ARC
  8
CYAN
 10
238.1189702669
 20
323.7940704212
 40
7.959864113
 50
296.9277766329
 51
358.3565207529
  0
ARC
  8
CYAN
 10
240.0254834766
 20
320.0406498183
 40
3.7499996448
 50
237.0889083297
 51
296.9276987794
  0
ARC
  8
CYAN
 10
219.5920262104
 20
288.4686966474
 40
33.8573720113
 50
57.0889454624
 51
66.1871439013
  0
ARC
  8
CYAN
 10
231.445085124
 20
315.3268509163
 40
4.499997191
 50
66.1871665412
 51
134.0898857767
  0
ARC
  8
CYAN
 10
225.7048813633
 20
321.2524342325
 40
3.7500014062
 50
301.2928698459
 51
314.0892495855
  0
ARC
  8
CYAN
 10
220.5755429068
 20
329.6907743118
 40
13.6250050157
 50
275.519003737
 51
301.2935363048
  0
ARC
  8
CYAN
 10
221.5252833235
 20
319.8615513717
 40
3.7500047391
 50
241.2602264413
 51
275.5189515933
  0
ARC
  8
CYAN
 10
212.9182139427
 20
304.1663200282
 40
14.1503285052
 50
61.2601739864
 51
118.207054433
  0
ARC
  8
CYAN
 10
208.0024022395
 20
313.3315617307
 40
3.7499986947
 50
118.2070647256
 51
137.1857495093
  0
ARC
  8
CYAN
 10
203.1751721259
 20
317.8038699281
 40
2.8305553232
 50
218.9402159809
 51
317.185549899
  0
ARC
  8
CYAN
 10
246.406435562
 20
347.7112010643
 40
55.3910792396
 50
188.8193232386
 51
214.8931691138
  0
ARC
  8
CYAN
 10
187.9913980647
 20
338.4917122094
 40
3.7500029129
 50
11.1781703285
 51
71.2536625743
  0
ARC
  8
CYAN
 10
149.0376365578
 20
223.7132634545
 40
124.9584507791
 50
71.253701384
 51
74.6468586827
  0
ARC
  8
CYAN
 10
182.9168788899
 20
347.1051708649
 40
3.0000029291
 50
209.5054584014
 51
254.6469487869
  0
ARC
  8
CYAN
 10
187.2919526406
 20
349.5809999995
 40
8.0270299061
 50
180.0770888588
 51
209.5053419632
  0
ARC
  8
CYAN
 10
176.2649329558
 20
349.5661632153
 40
2.9999997601
 50
0.0770969372
 51
47.0046447903
  0
ARC
  8
CYAN
 10
173.7005593135
 20
346.815779966
 40
6.7604013604
 50
47.0045419517
 51
138.6667810963
  0
ARC
  8
CYAN
 10
166.3716644735
 20
353.2619172426
 40
2.9999974718
 50
274.5005447995
 51
318.6665893367
  0
ARC
  8
CYAN
 10
166.113884288
 20
356.5366028429
 40
6.28481351
 50
212.5792137251
 51
274.5007766372
  0
ARC
  8
CYAN
 10
157.6580806151
 20
351.1331983256
 40
3.7499957125
 50
32.5793913056
 51
51.9790277426
  0
ARC
  8
CYAN
 10
154.5755522981
 20
347.1907798558
 40
8.7544581427
 50
51.9787758837
 51
130.1658193177
  0
ARC
  8
CYAN
 10
151.3476774676
 20
351.0150979441
 40
3.7500016526
 50
130.1660034014
 51
143.3756778401
  0
ARC
  8
CYAN
 10
165.8255591891
 20
340.2532777768
 40
21.7895646311
 50
143.3755562259
 51
176.5466777856
  0
LINE
  8
CYAN
 10
144.07556
 20
341.56578
 11
165.07556
 21
337.81578
  0
LINE
  8
CYAN
 10
165.07556
 20
337.81578
 11
164.54819
 21
334.86249
  0
LINE
  8
CYAN
 10
164.54819
 20
334.86249
 11
143.54819
 21
338.61249
  0
ARC
  8
CYAN
 10
122.1651724842
 20
344.1305320234
 40
22.0835283832
 50
272.7953041594
 51
345.5300979165
  0
ARC
  8
CYAN
 10
123.0565558526
 20
326.5695219418
 40
4.5000703411
 50
267.7928900305
 51
272.3635641171
  0
ARC
  8
CYAN
 10
125.1005911522
 20
380.190775954
 40
58.1602690256
 50
257.3847654333
 51
267.8150877168
  0
ARC
  8
CYAN
 10
111.579236897
 20
319.7750992389
 40
3.7499967938
 50
77.3850223584
 51
97.4570692828
  0
ARC
  8
CYAN
 10
112.6003679984
 20
311.9733390121
 40
11.6182984761
 50
97.4568557848
 51
135.0806812268
  0
ARC
  8
CYAN
 10
111.9181167184
 20
313.2625245725
 40
10.2339730403
 50
137.4951136605
 51
160.1885708143
  0
ARC
  8
CYAN
 10
105.8179104373
 20
315.4601124706
 40
3.7499997798
 50
160.1886258138
 51
179.7375457508
  0
ARC
  8
CYAN
 10
298.6205616989
 20
232.290779767
 40
61.436736657
 50
71.5385105427
 51
92.8409265213
  0
ARC
  8
CYAN
 10
297.2331444993
 20
206.2612594183
 40
87.4064692892
 50
91.0866276867
 51
100.9864069491
  0
ARC
  8
CYAN
 10
287.0755715634
 20
264.9407843375
 40
27.8929299288
 50
103.475784331
 51
117.6472205478
  0
ARC
  8
CYAN
 10
278.3087469052
 20
281.6765378045
 40
9.0000037739
 50
117.6471410652
 51
133.056947049
  0
ARC
  8
CYAN
 10
290.3255572081
 20
268.8157761531
 40
26.601223053
 50
133.0570035984
 51
155.0030153181
  0
ARC
  8
CYAN
 10
277.0920402108
 20
274.9858502626
 40
11.9999975348
 50
155.0031522741
 51
167.7073026346
  0
ARC
  8
CYAN
 10
228.8255684604
 20
285.5033044099
 40
37.3990827904
 50
334.060485273
 51
347.7071447328
  0
ARC
  8
CYAN
 10
257.0613890239
 20
271.7686493933
 40
6.0000014134
 50
269.6658776188
 51
334.0605243195
  0
ARC
  8
CYAN
 10
257.0869263267
 20
276.1453177472
 40
10.3767442702
 50
231.1343716737
 51
269.665798574
  0
ARC
  8
CYAN
 10
247.82556
 20
262.31578
 40
6.373774392
 50
64.4400348282
 51
168.690067526
  0
ARC
  8
CYAN
 10
326.415389947
 20
254.4749251804
 40
85.3254966981
 50
173.8839135269
 51
186.5163047512
  0
ARC
  8
CYAN
 10
246.8962091127
 20
244.8179693152
 40
5.2551448704
 50
180.286628271
 51
314.4384473796
  0
ARC
  8
CYAN
 10
256.9505511923
 20
233.4407774947
 40
9.9388719636
 50
81.8589492874
 51
129.8977865301
  0
ARC
  8
CYAN
 10
257.50834184
 20
237.3399581195
 40
5.9999964957
 50
6.8946256092
 51
81.8589922347
  0
ARC
  8
CYAN
 10
283.6693077825
 20
240.5032845383
 40
20.3515266686
 50
186.8946018827
 51
225.1866439773
  0
ARC
  8
CYAN
 10
286.4652632976
 20
239.5878329491
 40
21.8315218225
 50
218.2710232164
 51
274.2299877979
  0
ARC
  8
CYAN
 10
291.48806
 20
297.31578
 40
79.573206271
 50
267.5421145135
 51
289.5194167064
  0
ARC
  8
CYAN
 10
296.17556
 20
308.94078
 40
89.3504371842
 50
284.1878809668
 51
294.3922114715
  0
ARC
  8
CYAN
 10
324.82556
 20
259.06578
 40
32.5624400191
 50
284.6763931375
 51
308.4537092167
  0
ARC
  8
CYAN
 10
341.8615952
 20
235.8428064
 40
3.9388347213
 50
324.6832313064
 51
109.0565639853
  0
ARC
  8
CYAN
 10
283.12556
 20
361.44078
 40
134.7368476884
 50
288.3643502921
 51
295.2384686806
  0
ARC
  8
CYAN
 10
296.17556
 20
317.94078
 40
89.3504371842
 50
284.1878809668
 51
289.2106075012
  0
ARC
  8
CYAN
 10
287.70056
 20
344.19078
 40
116.8905738287
 50
273.8629828715
 51
285.0616615445
  0
ARC
  8
CYAN
 10
292.2757143959
 20
247.6662612926
 40
20.3695441581
 50
234.6996622463
 51
279.3229439009
  0
ARC
  8
CYAN
 10
287.4392666173
 20
240.8355941909
 40
12.0000017471
 50
203.1174325286
 51
234.6996834096
  0
ARC
  8
CYAN
 10
325.5755654326
 20
257.1157584263
 40
53.4659038216
 50
185.1507458965
 51
203.1173717883
  0
LINE
  8
CYAN
 10
272.32556
 20
252.31578
 11
261.82556
 21
252.31578
  0
LINE
  8
CYAN
 10
261.82556
 20
252.31578
 11
261.82556
 21
255.31578
  0
LINE
  8
CYAN
 10
261.82556
 20
255.31578
 11
272.32556
 21
255.31578
  0
ARC
  8
CYAN
 10
346.9505616172
 20
252.6907923892
 40
74.6711552497
 50
167.1403681886
 51
177.9854107562
  0
ARC
  8
CYAN
 10
285.8513060096
 20
266.6390797577
 40
11.9999995534
 50
150.2884207494
 51
167.1403147024
  0
ARC
  8
CYAN
 10
379.9505664258
 20
212.9407907024
 40
120.3428676081
 50
147.7496744694
 51
150.288498729
  0
ARC
  8
CYAN
 10
288.3223120051
 20
270.7546340174
 40
11.9999975749
 50
105.8654099478
 51
147.749643842
  0
ARC
  8
CYAN
 10
299.8546514193
 20
230.1771401658
 40
54.1844480234
 50
87.456819474
 51
105.8654267439
  0
ARC
  8
CYAN
 10
301.7264620301
 20
272.3200408782
 40
11.9999988102
 50
79.9678054396
 51
87.4567696577
  0
ARC
  8
CYAN
 10
277.8974091916
 20
137.6203108111
 40
148.791230398
 50
65.0865354153
 51
79.9678785318
  0
ARC
  8
CYAN
 10
342.7719893805
 20
275.940779292
 40
4.0267756636
 50
236.9441620448
 51
40.6839876238
  0
ARC
  8
CYAN
 10
292.3112125046
 20
192.8997889169
 40
101.0071651721
 50
58.0075548225
 51
75.222003063
  0
ARC
  8
CYAN
 10
426.700559806
 20
593.5657756017
 40
13.624999291
 50
329.5405692952
 51
25.4072786505
  0
ARC
  8
CYAN
 10
441.040139664
 20
600.3769384335
 40
2.2499964453
 50
130.3810158794
 51
205.4072142107
  0
ARC
  8
CYAN
 10
434.0755602187
 20
608.5657779719
 40
8.5000016866
 50
310.3810565057
 51
61.9275207982
  0
ARC
  8
CYAN
 10
422.795297
 20
592.724991
 40
27.897649874
 50
56.7888661944
 51
86.3412361597
  0
LINE
  8
CYAN
 10
424.57556
 20
620.56578
 11
424.57556
 21
580.06578
  0
LINE
  8
CYAN
 10
424.57556
 20
580.06578
 11
421.57556
 21
580.06578
  0
LINE
  8
CYAN
 10
421.57556
 20
580.06578
 11
421.57556
 21
620.56578
  0
ARC
  8
CYAN
 10
418.1239057425
 20
595.2626217133
 40
25.5374966744
 50
82.2321139331
 51
130.9937588348
  0
ARC
  8
CYAN
 10
407.2756608842
 20
607.7447784911
 40
9.0000042912
 50
130.9934782235
 51
143.5276828281
  0
ARC
  8
CYAN
 10
497.1677680246
 20
541.2960070692
 40
120.7856480456
 50
143.5279498597
 51
149.1550620617
  0
ARC
  8
CYAN
 10
401.1933140038
 20
598.6103683402
 40
8.9999967639
 50
149.1552422671
 51
158.253797688
  0
ARC
  8
CYAN
 10
355.4203983747
 20
616.8685416058
 40
40.2800265335
 50
310.1183095734
 51
338.2536016613
  0
ARC
  8
CYAN
 10
387.2316489893
 20
576.9625253439
 40
10.8241869711
 50
122.7530220996
 51
258.6659839353
  0
ARC
  8
CYAN
 10
383.6304001522
 20
558.9956982488
 40
7.5000011159
 50
70.436465869
 51
78.6657702147
  0
ARC
  8
CYAN
 10
421.3415511417
 20
665.1157825257
 40
105.1215030291
 50
250.4366839503
 51
257.7352889426
  0
ARC
  8
CYAN
 10
398.3734485671
 20
559.4619809564
 40
3.000000484
 50
34.819959592
 51
77.7351794219
  0
ARC
  8
CYAN
 10
395.1080613326
 20
557.1907750562
 40
6.9775788971
 50
355.3506469261
 51
34.8200622238
  0
ARC
  8
CYAN
 10
398.3250199776
 20
556.9291599687
 40
3.7500000247
 50
293.3711257247
 51
355.3505799979
  0
ARC
  8
CYAN
 10
595.980622456
 20
99.5408079764
 40
494.5188448065
 50
113.3710825582
 51
114.8877339712
  0
ARC
  8
CYAN
 10
390.0759333116
 20
543.3732749465
 40
5.2500028101
 50
114.8877774827
 51
177.5093601178
  0
ARC
  8
CYAN
 10
390.0802826218
 20
543.5219360724
 40
5.2499943422
 50
179.1325195246
 51
248.3158063106
  0
ARC
  8
CYAN
 10
373.0010632039
 20
500.5692676781
 40
40.9737166524
 50
39.8230078811
 51
68.3158048599
  0
ARC
  8
CYAN
 10
408.5021073257
 20
530.1717641418
 40
5.2499994533
 50
219.8228535593
 51
242.8802997032
  0
ARC
  8
CYAN
 10
415.5755561104
 20
543.9828800234
 40
20.7671061296
 50
242.8804215038
 51
296.4310153819
  0
ARC
  8
CYAN
 10
422.4825312313
 20
530.0877611232
 40
5.2499983265
 50
296.4310106573
 51
328.3098015519
  0
ARC
  8
CYAN
 10
414.3619589849
 20
535.1012071597
 40
14.7934953151
 50
328.3098105443
 51
352.3579044218
  0
ARC
  8
CYAN
 10
434.2274338369
 20
532.4357466498
 40
5.2500016559
 50
161.6877870504
 51
172.3580812239
  0
ARC
  8
CYAN
 10
464.8505488932
 20
522.3007607303
 40
37.5066771718
 50
138.3950701937
 51
161.6876174363
  0
ARC
  8
CYAN
 10
440.730911886
 20
543.718891152
 40
5.2500003417
 50
104.4404526842
 51
138.3950961094
  0
ARC
  8
CYAN
 10
441.5394684578
 20
540.6443302284
 40
8.4290761774
 50
78.5420049921
 51
104.5512337125
  0
ARC
  8
CYAN
 10
442.1044062651
 20
543.7739928149
 40
5.2500020289
 50
28.1910188761
 51
77.7995743121
  0
ARC
  8
CYAN
 10
487.0055589396
 20
567.840780716
 40
45.6943184728
 50
208.1910875254
 51
263.7521175052
  0
ARC
  8
CYAN
 10
482.5223851782
 20
526.8911420288
 40
4.5000014426
 50
263.7519970458
 51
319.0390362208
  0
ARC
  8
CYAN
 10
482.1772109697
 20
527.1907741174
 40
4.9570841733
 50
319.0391290693
 51
59.6814821323
  0
ARC
  8
CYAN
 10
482.4079452501
 20
527.5853413933
 40
4.5000047016
 50
59.6814456397
 51
87.6217389242
  0
ARC
  8
CYAN
 10
483.7177770935
 20
559.1236726653
 40
27.0655144431
 50
187.3363338691
 51
267.621800071
  0
ARC
  8
CYAN
 10
461.3369900236
 20
556.2421995097
 40
4.4999983308
 50
178.1727119133
 51
187.3363155676
  0
ARC
  8
CYAN
 10
442.2477890497
 20
556.8512012385
 40
14.5989146468
 50
358.172716821
 51
76.8237985032
  0
ARC
  8
CYAN
 10
452.1090510885
 20
604.4016896517
 40
33.9701247879
 50
245.5994776091
 51
258.9111791408
  0
ARC
  8
CYAN
 10
440.0598059207
 20
577.5142486686
 40
4.5085840831
 50
166.5127646687
 51
243.8894826223
  0
ARC
  8
CYAN
 10
333.7936770189
 20
615.3019708035
 40
108.3026582986
 50
340.1718986166
 51
343.9068625683
  0
ARC
  8
CYAN
 10
443.617078262
 20
583.6173159599
 40
5.9999961465
 50
149.5406010906
 51
163.9067864278
  0
ARC
  8
CYAN
 10
348.3341002819
 20
601.7260202055
 40
3.7500039858
 50
83.989590469
 51
168.1911454016
  0
LINE
  8
CYAN
 10
348.72676
 20
605.45541
 11
351.94798
 21
605.11625
  0
ARC
  8
CYAN
 10
352.2621120612
 20
608.0997505859
 40
2.9999924496
 50
263.9894865516
 51
307.7466358782
  0
ARC
  8
CYAN
 10
352.232599941
 20
608.0766097627
 40
2.9999952811
 50
308.4628934708
 51
23.5896843287
  0
LINE
  8
CYAN
 10
354.9819
 20
609.27716
 11
352.50131
 21
614.95782
  0
ARC
  8
CYAN
 10
355.937939964
 20
616.4585003816
 40
3.7499956156
 50
167.1982181421
 51
203.5895506032
  0
ARC
  8
CYAN
 10
358.5831498576
 20
615.8574396223
 40
6.4626344448
 50
151.366067027
 51
167.1982414376
  0
ARC
  8
CYAN
 10
355.3717079366
 20
617.2384732767
 40
3.0000024232
 50
79.7556090365
 51
145.1116956586
  0
LINE
  8
CYAN
 10
355.90525
 20
620.19065
 11
360.67803
 21
619.32806
  0
ARC
  8
CYAN
 10
361.2115756035
 20
622.2802284422
 40
2.9999949037
 50
259.7555143762
 51
319.265313353
  0
ARC
  8
CYAN
 10
360.5331256528
 20
622.8645414076
 40
3.8953808409
 50
319.2648790209
 51
328.3883123562
  0
ARC
  8
CYAN
 10
361.2956400002
 20
622.3952000814
 40
2.9999985706
 50
328.3887178301
 51
31.3090154403
  0
LINE
  8
CYAN
 10
363.85877
 20
623.95416
 11
361.35947
 21
628.06334
  0
ARC
  8
CYAN
 10
364.5633893547
 20
630.0120326151
 40
3.7500002853
 50
176.4143457412
 51
211.3088659408
  0
ARC
  8
CYAN
 10
365.7005560667
 20
629.940771875
 40
4.8893975927
 50
131.92310329
 51
176.4143209282
  0
ARC
  8
CYAN
 10
364.9392907538
 20
630.7885401274
 40
3.7499960452
 50
67.2618509775
 51
131.9232272841
  0
LINE
  8
CYAN
 10
366.38874
 20
634.24709
 11
369.35271
 21
633.00491
  0
ARC
  8
CYAN
 10
370.5122655723
 20
635.7717495516
 40
2.9999950383
 50
247.2619157894
 51
304.3027529938
  0
ARC
  8
CYAN
 10
369.3686908886
 20
637.4480601167
 40
5.0292264609
 50
304.3023306049
 51
323.5406411314
  0
ARC
  8
CYAN
 10
371.0007385983
 20
636.2421701304
 40
3.0000023765
 50
323.5410831501
 51
20.2927119254
  0
LINE
  8
CYAN
 10
373.81454
 20
637.28262
 11
372.01245
 21
642.15626
  0
ARC
  8
CYAN
 10
374.8262512774
 20
643.1967062792
 40
3.0000010148
 50
136.7089751683
 51
200.2926484334
  0
ARC
  8
CYAN
 10
375.6510591656
 20
642.4196348672
 40
4.1332035697
 50
121.6577757363
 51
136.7084133431
  0
ARC
  8
CYAN
 10
375.0563245481
 20
643.3842301889
 40
2.9999986461
 50
63.0982452471
 51
121.6582638688
  0
LINE
  8
CYAN
 10
376.41371
 20
646.05958
 11
381.21784
 21
643.62211
  0
ARC
  8
CYAN
 10
382.9145769339
 20
646.966299786
 40
3.750002873
 50
243.0981929338
 51
304.8853660605
  0
ARC
  8
CYAN
 10
382.4632787701
 20
647.6135687429
 40
4.5390701294
 50
304.8853952058
 51
326.3697502719
  0
ARC
  8
CYAN
 10
383.0312789849
 20
647.0360935456
 40
3.7499997681
 50
328.9106398536
 51
13.2133515361
  0
LINE
  8
CYAN
 10
386.682
 20
647.89326
 11
385.60497
 21
652.48043
  0
ARC
  8
CYAN
 10
388.5255500403
 20
653.1661603664
 40
3.0000023179
 50
154.2198256891
 51
193.2132854366
  0
ARC
  8
CYAN
 10
388.226003292
 20
653.4455283658
 40
2.611584821
 50
143.1851841169
 51
156.8816336993
  0
ARC
  8
CYAN
 10
389.2385210995
 20
652.905220295
 40
3.7499989291
 50
64.1931650284
 51
145.8473218817
  0
LINE
  8
CYAN
 10
390.87104
 20
656.28122
 11
396.11717
 21
653.74435
  0
ARC
  8
CYAN
 10
396.2270021616
 20
657.935500789
 40
4.192589658
 50
268.4988658986
 51
311.6078160356
  0
ARC
  8
CYAN
 10
396.8691730757
 20
656.9012877668
 40
3.0000029293
 50
315.556527361
 51
345.4217290257
  0
LINE
  8
CYAN
 10
399.77259
 20
656.14618
 11
400.76845
 21
659.97527
  0
ARC
  8
CYAN
 10
403.6718551699
 20
659.2201505132
 40
2.9999945033
 50
140.6138039151
 51
165.4214558902
  0
ARC
  8
CYAN
 10
405.2630949152
 20
657.9137621964
 40
5.0588034699
 50
87.5416825505
 51
140.6140563907
  0
ARC
  8
CYAN
 10
405.35140663
 20
659.9706681024
 40
3.0000026382
 50
60.5144511095
 51
87.5417677105
  0
LINE
  8
CYAN
 10
406.82802
 20
662.58211
 11
409.79996
 21
660.90165
  0
ARC
  8
CYAN
 10
411.2765895956
 20
663.513077003
 40
2.999997659
 50
240.5140413438
 51
264.7949741783
  0
ARC
  8
CYAN
 10
411.3868444512
 20
664.7236084791
 40
4.2155397552
 50
264.7952341086
 51
305.860907684
  0
ARC
  8
CYAN
 10
412.098940681
 20
663.7384926612
 40
3.000001103
 50
305.8606734637
 51
333.836932652
  0
LINE
  8
CYAN
 10
414.79157
 20
662.41571
 11
416.40564
 21
665.7013
  0
ARC
  8
CYAN
 10
419.0982708432
 20
664.3785307256
 40
2.9999965685
 50
107.5892248574
 51
153.8371749626
  0
ARC
  8
CYAN
 10
419.3571814433
 20
663.5617585493
 40
3.8568229726
 50
91.6563648427
 51
107.5890018777
  0
ARC
  8
CYAN
 10
419.3324276957
 20
664.4182263574
 40
2.9999975212
 50
37.6848920218
 51
91.6566091509
  0
LINE
  8
CYAN
 10
421.70658
 20
666.25218
 11
423.11538
 21
664.42842
  0
ARC
  8
CYAN
 10
425.5546780176
 20
666.8201901612
 40
3.4162463791
 50
224.4363445858
 51
306.2671081095
  0
ARC
  8
CYAN
 10
438.2814415936
 20
655.3194504739
 40
13.824405263
 50
72.3706285925
 51
140.7523834558
  0
ARC
  8
CYAN
 10
443.6040025855
 20
672.0684798271
 40
3.749997708
 50
252.3705649725
 51
279.9794771208
  0
ARC
  8
CYAN
 10
447.9882566668
 20
647.1520695003
 40
21.5491957066
 50
97.0738077917
 51
99.9795306352
  0
ARC
  8
CYAN
 10
445.7963273972
 20
664.8157898411
 40
3.7499943143
 50
89.9147039517
 51
97.0738653552
  0
ARC
  8
CYAN
 10
445.6908414671
 20
593.9682768051
 40
74.5975858801
 50
78.4903183983
 51
89.9146921385
  0
ARC
  8
CYAN
 10
455.3165646207
 20
636.2576788614
 40
31.2537378271
 50
72.0023145311
 51
80.3128837888
  0
ARC
  8
CYAN
 10
463.5828845599
 20
661.7023277586
 40
4.5000053241
 50
358.0710905348
 51
72.0021778824
  0
ARC
  8
CYAN
 10
462.4411768618
 20
661.7407664059
 40
5.642359909
 50
335.9307104671
 51
358.0712164577
  0
ARC
  8
CYAN
 10
463.4842175252
 20
661.2748753898
 40
4.4999990797
 50
275.2923906714
 51
335.9305611416
  0
ARC
  8
CYAN
 10
471.2621985703
 20
577.3093964229
 40
79.8249595463
 50
95.2923807853
 51
97.6936238589
  0
ARC
  8
CYAN
 10
475.9693383418
 20
516.428285338
 40
140.8313426528
 50
96.2753387365
 51
105.0573717544
  0
ARC
  8
CYAN
 10
442.3058903937
 20
641.5606024012
 40
11.2499994688
 50
105.0573014038
 51
117.3120544973
  0
ARC
  8
CYAN
 10
426.8391947061
 20
671.5112287051
 40
22.4584370344
 50
270.1779594171
 51
297.3121539147
  0
ARC
  8
CYAN
 10
426.8996314889
 20
652.0528796509
 40
2.9999941234
 50
243.4338100556
 51
270.1779710869
  0
ARC
  8
CYAN
 10
423.5577021577
 20
645.3693508842
 40
4.472491971
 50
63.4338226567
 51
161.1309910478
  0
ARC
  8
CYAN
 10
409.6389411488
 20
650.2586707014
 40
10.2802763169
 50
262.3785828564
 51
340.4333881356
  0
ARC
  8
CYAN
 10
407.980954325
 20
638.6829909339
 40
1.4171663465
 50
78.004124026
 51
185.8307779407
  0
LINE
  8
CYAN
 10
406.57112
 20
638.53902
 11
407.04842
 21
634.52022
  0
ARC
  8
CYAN
 10
403.3245916043
 20
634.0779599239
 40
3.7499989194
 50
334.8606386158
 51
6.7730013313
  0
ARC
  8
CYAN
 10
400.547695245
 20
635.3810648933
 40
6.8174467106
 50
291.1656459954
 51
334.8607556311
  0
ARC
  8
CYAN
 10
401.6552424419
 20
632.5205400472
 40
3.7499944797
 50
251.0488962913
 51
291.1657107777
  0
LINE
  8
CYAN
 10
400.43739
 20
628.97381
 11
396.01781
 21
630.49137
  0
ARC
  8
CYAN
 10
395.5306730692
 20
629.0726700867
 40
1.5000039445
 50
71.049140387
 51
112.1868153601
  0
ARC
  8
CYAN
 10
395.7070963875
 20
628.6400361981
 40
1.9672268769
 50
112.1864060721
 51
160.7402047253
  0
ARC
  8
CYAN
 10
395.2660201558
 20
628.7941548365
 40
1.5000001687
 50
160.740324277
 51
195.5692696702
  0
LINE
  8
CYAN
 10
393.82106
 20
628.39155
 11
395.26037
 21
623.22579
  0
ARC
  8
CYAN
 10
391.6479600243
 20
622.2193029026
 40
3.750002948
 50
344.2157007653
 51
15.5688624947
  0
ARC
  8
CYAN
 10
387.9615754941
 20
623.2613231025
 40
7.5808301434
 50
309.4733978445
 51
344.215922538
  0
ARC
  8
CYAN
 10
390.3969083461
 20
620.3042292268
 40
3.7500012135
 50
280.6414102672
 51
309.4734234651
  0
ARC
  8
CYAN
 10
482.862074131
 20
128.1853307699
 40
496.9802825741
 50
100.6413461038
 51
101.2563429668
  0
ARC
  8
CYAN
 10
386.2912630121
 20
613.3988225798
 40
2.2499982832
 50
101.2562345341
 51
159.9031536714
  0
ARC
  8
CYAN
 10
387.6046318244
 20
613.1062565499
 40
3.5882732749
 50
162.7230587898
 51
169.8080305911
  0
ARC
  8
CYAN
 10
386.2874793205
 20
613.343084492
 40
2.2499989413
 50
169.8086668094
 51
207.3947071492
  0
ARC
  8
CYAN
 10
199.6066327909
 20
516.5990742234
 40
208.0097023423
 50
26.3618815753
 51
27.3946406677
  0
ARC
  8
CYAN
 10
383.9688540826
 20
607.9644273452
 40
2.2499968831
 50
9.3981867225
 51
26.362333579
  0
ARC
  8
CYAN
 10
379.8220903575
 20
607.2781114362
 40
6.4531717448
 50
322.6451298329
 51
9.3978228282
  0
ARC
  8
CYAN
 10
383.1631641137
 20
604.7278329033
 40
2.2499950366
 50
287.7802890375
 51
322.6451748071
  0
ARC
  8
CYAN
 10
399.4236230752
 20
554.0223929589
 40
50.9988938307
 50
107.780249419
 51
115.0102262593
  0
ARC
  8
CYAN
 10
379.1306534929
 20
597.5205444566
 40
3.0000001123
 50
115.0102979506
 51
168.8145536227
  0
ARC
  8
CYAN
 10
380.9286668871
 20
597.1649734074
 40
4.8328347847
 50
168.8142116556
 51
177.8324525292
  0
ARC
  8
CYAN
 10
378.3476773597
 20
597.2626866999
 40
2.2499962634
 50
177.8331060876
 51
200.135626059
  0
ARC
  8
CYAN
 10
218.7020555388
 20
538.7292592124
 40
167.7879015712
 50
18.1738656667
 51
20.1352543503
  0
ARC
  8
CYAN
 10
375.2694197557
 20
590.1268683979
 40
2.999996166
 50
345.1584710929
 51
18.1738269214
  0
ARC
  8
CYAN
 10
375.3440105112
 20
590.3671704534
 40
2.9999979194
 50
282.7961702564
 51
340.3516116789
  0
ARC
  8
CYAN
 10
387.2035291486
 20
538.1515284056
 40
50.5455103589
 50
102.7962654326
 51
109.3756840102
  0
ARC
  8
CYAN
 10
371.1809684851
 20
583.711758923
 40
2.249992399
 50
109.3756623634
 51
141.4450581148
  0
ARC
  8
CYAN
 10
371.7674791377
 20
583.2443055736
 40
2.9999973187
 50
141.4450171261
 51
196.5085713019
  0
ARC
  8
CYAN
 10
312.1556675364
 20
565.5767700235
 40
59.1748359727
 50
11.1086971249
 51
16.5085822776
  0
ARC
  8
CYAN
 10
367.2779799427
 20
576.4000289603
 40
2.9999994439
 50
342.5846532785
 51
11.1086658374
  0
ARC
  8
CYAN
 10
365.2350312785
 20
577.3373136205
 40
5.2374701106
 50
324.4439566293
 51
339.4886365413
  0
ARC
  8
CYAN
 10
367.0553276388
 20
576.0362343022
 40
2.9999969305
 50
274.3324912449
 51
324.44374315
  0
ARC
  8
CYAN
 10
410.433231763
 20
3.4753893267
 40
571.2016782371
 50
94.3325213491
 51
95.0141507305
  0
ARC
  8
CYAN
 10
360.7714015381
 20
569.5026406824
 40
3.0000004337
 50
95.0142690004
 51
132.8342989105
  0
ARC
  8
CYAN
 10
360.9389409032
 20
569.6707756081
 40
2.9999997559
 50
137.3686847338
 51
204.3337974678
  0
ARC
  8
CYAN
 10
-72.9252274311
 20
373.4650693359
 40
473.1667732745
 50
23.688413133
 51
24.3338348583
  0
LINE
  8
CYAN
 10
360.37434
 20
563.56578
 11
360.40811
 21
563.48878
  0
ARC
  8
CYAN
 10
357.6606598721
 20
562.2839906784
 40
2.9999999191
 50
357.6796376415
 51
23.6780183636
  0
ARC
  8
CYAN
 10
355.7205201151
 20
562.4525602666
 40
4.9461904737
 50
316.6695584417
 51
356.6384133912
  0
ARC
  8
CYAN
 10
357.1739762808
 20
561.1564021634
 40
3.0000000309
 50
262.3834850934
 51
315.62800421
  0
ARC
  8
CYAN
 10
375.3779763477
 20
697.2914671768
 40
140.3467930209
 50
259.8270309734
 51
262.3835803347
  0
ARC
  8
CYAN
 10
350.0599990198
 20
556.1982268944
 40
2.9999977676
 50
79.8268333952
 51
131.759101438
  0
ARC
  8
CYAN
 10
350.7887951728
 20
555.381956113
 40
4.094274616
 50
131.7592437741
 51
147.7655606427
  0
ARC
  8
CYAN
 10
350.0633903804
 20
556.339274894
 40
3.0000049945
 50
155.8683682035
 51
195.2424765503
  0
ARC
  8
CYAN
 10
-474.8352013441
 20
331.5619929669
 40
851.9751485039
 50
14.8476839046
 51
15.2425074726
  0
ARC
  8
CYAN
 10
345.7930600158
 20
549.1121302702
 40
2.9999983474
 50
338.480145099
 51
14.8476691755
  0
ARC
  8
CYAN
 10
344.3255737775
 20
549.6908061651
 40
4.5774588542
 50
325.9812209805
 51
338.479793755
  0
ARC
  8
CYAN
 10
345.6330455814
 20
548.8082482147
 40
2.9999953672
 50
258.0193006091
 51
325.9817504681
  0
ARC
  8
CYAN
 10
369.719883141
 20
662.3151264436
 40
119.0344176259
 50
254.9994574127
 51
258.0192223169
  0
ARC
  8
CYAN
 10
338.1339385657
 20
544.4392297589
 40
2.999999298
 50
74.9995159591
 51
124.0822879393
  0
ARC
  8
CYAN
 10
338.2246875913
 20
544.5031049199
 40
3.0000025237
 50
126.201872057
 51
183.0626721887
  0
ARC
  8
CYAN
 10
-74.5766600341
 20
522.4149185812
 40
410.391870373
 50
2.0913663579
 51
3.0628647339
  0
ARC
  8
CYAN
 10
332.54384767
 20
537.281928316
 40
3.0000003367
 50
249.6225875918
 51
2.091219194
  0
ARC
  8
CYAN
 10
316.2342533691
 20
493.3735160606
 40
43.8396360096
 50
69.6227060945
 51
77.5403541486
  0
ARC
  8
CYAN
 10
325.5782848215
 20
535.9389889417
 40
0.2673949419
 50
64.6568931938
 51
90.5838684598
  0
ARC
  8
CYAN
 10
325.2005739496
 20
531.6907794386
 40
4.5311337054
 50
85.2529057808
 51
90.1380060471
  0
ARC
  8
CYAN
 10
325.1968771767
 20
533.2219074034
 40
3.0000012778
 50
90.1378379958
 51
175.0710217912
  0
ARC
  8
CYAN
 10
395.9194908963
 20
527.1230625919
 40
73.9850983009
 50
175.0712188874
 51
180.3846686644
  0
ARC
  8
CYAN
 10
318.9361318005
 20
526.6062179653
 40
2.9999957502
 50
334.1415110822
 51
0.3844969708
  0
ARC
  8
CYAN
 10
319.0082538314
 20
526.7456181465
 40
3.0000000619
 50
242.3052272101
 51
331.143600519
  0
ARC
  8
CYAN
 10
132.9368389112
 20
172.253392959
 40
397.3589753199
 50
62.3052158022
 51
63.1988266182
  0
ARC
  8
CYAN
 10
310.73397354
 20
524.1667093487
 40
3.0814781891
 50
63.5951662224
 51
95.5561711711
  0
ARC
  8
CYAN
 10
310.6988858355
 20
524.2452856727
 40
2.9999981433
 50
95.0344861159
 51
177.160893937
  0
ARC
  8
CYAN
 10
440.9248427966
 20
517.7870709543
 40
133.3859958724
 50
177.1608921382
 51
179.6655046511
  0
ARC
  8
CYAN
 10
305.2939404719
 20
518.4531679976
 40
2.2499993988
 50
354.1270115707
 51
2.8688404422
  0
ARC
  8
CYAN
 10
303.6521218579
 20
518.6220361666
 40
3.9004795773
 50
332.3391596141
 51
354.1272312234
  0
ARC
  8
CYAN
 10
304.4496840918
 20
518.2039911537
 40
2.9999979563
 50
239.1520382016
 51
332.3393386872
  0
ARC
  8
CYAN
 10
1.2189378459
 20
10.4966106782
 40
588.3676285317
 50
59.1520303828
 51
59.5141751022
  0
ARC
  8
CYAN
 10
301.2345767463
 20
520.1104695693
 40
2.9999971964
 50
231.7697780616
 51
239.5152248616
  0
ARC
  8
CYAN
 10
296.6510744743
 20
514.2923200537
 40
4.4067130631
 50
51.7687702179
 51
129.6067475807
  0
ARC
  8
CYAN
 10
295.7542684473
 20
515.3761071478
 40
2.9999950688
 50
129.6066833944
 51
173.2659384046
  0
ARC
  8
CYAN
 10
257.9179722422
 20
519.8435926614
 40
35.0991353324
 50
346.6492942897
 51
353.2660404524
  0
ARC
  8
CYAN
 10
289.1496229471
 20
512.4315365417
 40
2.9999985579
 50
318.0360801877
 51
346.6496044767
  0
ARC
  8
CYAN
 10
288.0922367789
 20
513.3824443943
 40
4.4220714295
 50
287.8693710869
 51
318.0357134176
  0
ARC
  8
CYAN
 10
288.5285872843
 20
512.0289702417
 40
2.999997576
 50
241.9572986601
 51
287.8695684356
  0
ARC
  8
CYAN
 10
301.4947660517
 20
536.3709985068
 40
30.5799927153
 50
226.836588095
 51
241.957277129
  0
ARC
  8
CYAN
 10
277.9036887815
 20
511.9095308327
 40
3.4334102988
 50
38.9041672736
 51
151.9288998549
  0
ARC
  8
CYAN
 10
276.8594805581
 20
512.4664021189
 40
2.2499930252
 50
151.9287357512
 51
178.5580808294
  0
ARC
  8
CYAN
 10
226.9748600258
 20
513.7221302822
 40
47.6504300078
 50
351.0047347641
 51
358.5580148661
  0
ARC
  8
CYAN
 10
272.5576928313
 20
506.5063871633
 40
1.5000064417
 50
325.8633172757
 51
351.0044683446
  0
ARC
  8
CYAN
 10
272.4105091597
 20
506.6061599717
 40
1.6778199573
 50
217.9900708088
 51
325.8637558447
  0
ARC
  8
CYAN
 10
307.7301539518
 20
540.226069724
 40
50.432525766
 50
213.2943759425
 51
223.4017061414
  0
ARC
  8
CYAN
 10
262.8185350062
 20
510.8158685634
 40
3.2525890929
 50
32.0440844527
 51
115.9330649657
  0
ARC
  8
CYAN
 10
262.3800872756
 20
511.7175069443
 40
2.2499983578
 50
115.9332375671
 51
151.3971819132
  0
ARC
  8
CYAN
 10
276.5832829825
 20
503.9726874421
 40
18.4275444452
 50
151.3969647692
 51
164.9245249822
  0
LINE
  8
CYAN
 10
258.78994
 20
508.76553
 11
258.74436
 21
508.64557
  0
ARC
  8
CYAN
 10
256.6440912164
 20
509.452631844
 40
2.2499950629
 50
314.1964745103
 51
338.9799305664
  0
ARC
  8
CYAN
 10
255.0755554122
 20
511.0657794082
 40
4.5000060925
 50
240.5037099524
 51
314.1965791112
  0
ARC
  8
CYAN
 10
253.9677304457
 20
509.1073994889
 40
2.2499998559
 50
201.6764137236
 51
240.5035838415
  0
ARC
  8
CYAN
 10
227.2750768143
 20
498.4978156811
 40
26.4738756915
 50
21.6764400862
 51
32.6791170534
  0
ARC
  8
CYAN
 10
247.6645044546
 20
511.5770956162
 40
2.2499964993
 50
32.679290483
 51
58.2381387624
  0
ARC
  8
CYAN
 10
246.8255616927
 20
510.2220300592
 40
3.8437429099
 50
58.2379517339
 51
125.7686665027
  0
ARC
  8
CYAN
 10
245.893987009
 20
511.5151666327
 40
2.2499946271
 50
125.7684644495
 51
151.005114665
  0
ARC
  8
CYAN
 10
-458.1257465762
 20
901.6767582931
 40
802.6536349363
 50
330.7809284019
 51
331.0051625429
  0
ARC
  8
CYAN
 10
240.4342268439
 20
510.9595523859
 40
2.2500045994
 50
315.7058782745
 51
330.7814476896
  0
ARC
  8
CYAN
 10
238.845245659
 20
512.5099204137
 40
4.4700276232
 50
232.6577586567
 51
315.7052867581
  0
ARC
  8
CYAN
 10
237.9535614685
 20
511.3412077126
 40
2.9999969864
 50
192.7450277847
 51
232.6577778693
  0
ARC
  8
CYAN
 10
277.345431019
 20
520.251217134
 40
43.3869708092
 50
185.1215488174
 51
192.7451988489
  0
ARC
  8
CYAN
 10
231.1436606672
 20
516.1103083531
 40
2.9999962092
 50
5.121458445
 51
38.9880293726
  0
ARC
  8
CYAN
 10
229.4948463785
 20
514.7757014418
 40
5.1212609655
 50
38.9879746364
 51
97.5953372589
  0
LINE
  8
CYAN
 10
228.81794
 20
519.85203
 11
229.56794
 21
530.35203
  0
LINE
  8
CYAN
 10
229.56794
 20
530.35203
 11
226.57556
 21
530.56578
  0
LINE
  8
CYAN
 10
226.57556
 20
530.56578
 11
225.82556
 21
520.06578
  0
LINE
  8
CYAN
 10
225.82556
 20
520.06578
 11
208.8968
 21
526.08073
  0
LINE
  8
CYAN
 10
208.8968
 20
526.08073
 11
209.75616
 21
533.60014
  0
LINE
  8
CYAN
 10
209.75616
 20
533.60014
 11
206.77556
 21
533.94078
  0
LINE
  8
CYAN
 10
206.77556
 20
533.94078
 11
205.57556
 21
523.44078
  0
LINE
  8
CYAN
 10
205.57556
 20
523.44078
 11
189.64974
 21
529.04318
  0
LINE
  8
CYAN
 10
189.64974
 20
529.04318
 11
192.28599
 21
539.58817
  0
LINE
  8
CYAN
 10
192.28599
 20
539.58817
 11
189.37556
 21
540.31578
  0
LINE
  8
CYAN
 10
189.37556
 20
540.31578
 11
186.37556
 21
528.31578
  0
LINE
  8
CYAN
 10
186.37556
 20
528.31578
 11
169.48599
 21
537.33817
  0
LINE
  8
CYAN
 10
169.48599
 20
537.33817
 11
172.48599
 21
549.33817
  0
LINE
  8
CYAN
 10
172.48599
 20
549.33817
 11
169.57556
 21
550.06578
  0
LINE
  8
CYAN
 10
169.57556
 20
550.06578
 11
166.57556
 21
538.06578
  0
LINE
  8
CYAN
 10
166.57556
 20
538.06578
 11
150.75412
 21
544.91498
  0
LINE
  8
CYAN
 10
150.75412
 20
544.91498
 11
153.75412
 21
558.41498
  0
LINE
  8
CYAN
 10
153.75412
 20
558.41498
 11
150.82556
 21
559.06578
  0
LINE
  8
CYAN
 10
150.82556
 20
559.06578
 11
147.82556
 21
545.56578
  0
ARC
  8
CYAN
 10
23.3783591042
 20
776.1948844379
 40
262.0627589426
 50
295.7358657455
 51
298.3512484321
  0
ARC
  8
CYAN
 10
135.8255544189
 20
542.3278692735
 40
2.5798022082
 50
253.3702189305
 51
301.4623068447
  0
ARC
  8
CYAN
 10
135.7311733945
 20
542.011855922
 40
2.249995877
 50
186.1768913949
 51
253.3700840155
  0
ARC
  8
CYAN
 10
525.866699203
 20
548.3205081568
 40
392.4271385142
 50
179.4621656285
 51
180.956477314
  0
ARC
  8
CYAN
 10
131.2182101869
 20
552.2299196807
 40
2.2499945881
 50
354.2413727253
 51
66.4317685852
  0
ARC
  8
CYAN
 10
131.0484075688
 20
552.0404141035
 40
2.4928662109
 50
64.5958137163
 51
78.8683568122
  0
ARC
  8
CYAN
 10
131.0248088813
 20
552.2937498819
 40
2.2500070619
 50
77.0329362746
 51
115.0155895361
  0
ARC
  8
CYAN
 10
186.98923746
 20
432.3635086267
 40
134.5953131127
 50
115.0157077339
 51
117.8613030393
  0
ARC
  8
CYAN
 10
122.6864401536
 20
554.0089700328
 40
2.9999921201
 50
266.2241366029
 51
297.8611964065
  0
ARC
  8
CYAN
 10
122.6370370775
 20
553.260604317
 40
2.2499975146
 50
236.8300869167
 51
266.2244750838
  0
ARC
  8
CYAN
 10
123.0473903611
 20
553.88838954
 40
3.0000002503
 50
199.4343458688
 51
236.8298821511
  0
ARC
  8
CYAN
 10
127.8033515264
 20
555.5664190522
 40
8.0433076621
 50
176.4405580479
 51
199.43425191
  0
ARC
  8
CYAN
 10
5.7621103255
 20
565.2144056957
 40
114.3799110806
 50
355.4123223404
 51
358.0467018132
  0
ARC
  8
CYAN
 10
117.35681
 20
561.50328
 40
2.7252078476
 50
356.054813771
 51
130.8150838749
  0
ARC
  8
CYAN
 10
109.2605565474
 20
570.9907804445
 40
9.7473022015
 50
214.946324859
 51
310.3813457251
  0
ARC
  8
CYAN
 10
99.4265052519
 20
564.1186175752
 40
2.249996969
 50
34.9464605747
 51
95.488298614
  0
ARC
  8
CYAN
 10
98.0137210046
 20
578.8223498206
 40
12.5214518859
 50
244.2591664382
 51
275.4883284765
  0
ARC
  8
CYAN
 10
93.8785404489
 20
570.2457393766
 40
3.0000042577
 50
187.2467642809
 51
244.2592695346
  0
ARC
  8
CYAN
 10
126.7685293345
 20
574.4279333156
 40
36.154824647
 50
161.382611624
 51
187.2466799405
  0
LINE
  8
CYAN
 10
92.50563
 20
585.97025
 11
108.25563
 21
582.97025
  0
LINE
  8
CYAN
 10
108.25563
 20
582.97025
 11
108.81697
 21
585.91727
  0
LINE
  8
CYAN
 10
108.81697
 20
585.91727
 11
93.06697
 21
588.91727
  0
ARC
  8
CYAN
 10
118.5671799815
 20
596.7917110255
 40
26.6883407234
 50
163.0313293351
 51
197.1606391836
  0
ARC
  8
CYAN
 10
97.3149868675
 20
603.4556683206
 40
4.4198303755
 50
71.1410589095
 51
165.2539644527
  0
ARC
  8
CYAN
 10
97.7739270874
 20
604.7992815844
 40
2.999998439
 50
51.769403704
 51
71.1409510647
  0
ARC
  8
CYAN
 10
104.325553945
 20
613.1157820704
 40
7.5871633533
 50
231.7694505373
 51
270.4755045393
  0
ARC
  8
CYAN
 10
104.3574176288
 20
609.2787530312
 40
3.7500020144
 50
270.47521442
 51
289.0376736675
  0
ARC
  8
CYAN
 10
97.6934094832
 20
628.5907736913
 40
24.1794696173
 50
289.0379854769
 51
312.8784309529
  0
ARC
  8
CYAN
 10
119.2495440702
 20
605.3760771901
 40
7.5000043679
 50
97.8303559851
 51
132.8783599668
  0
ARC
  8
CYAN
 10
122.2090206534
 20
583.856299742
 40
29.2223275186
 50
79.3946885386
 51
97.8303900504
  0
LINE
  8
CYAN
 10
127.58717
 20
612.57946
 11
125.33717
 21
587.07946
  0
LINE
  8
CYAN
 10
125.33717
 20
587.07946
 11
128.32556
 21
586.81578
  0
LINE
  8
CYAN
 10
128.32556
 20
586.81578
 11
130.57556
 21
612.31578
  0
ARC
  8
CYAN
 10
131.2097319231
 20
595.9866396154
 40
16.3414503557
 50
65.1560667828
 51
92.2240682692
  0
ARC
  8
CYAN
 10
132.9505599423
 20
595.9407800458
 40
15.7331258568
 50
32.0619159586
 51
70.9892333308
  0
ARC
  8
CYAN
 10
138.6567071493
 20
599.5149709713
 40
9.0000020113
 50
357.0682908833
 51
32.0618369129
  0
ARC
  8
CYAN
 10
173.9046250505
 20
597.7098675078
 40
26.294106773
 50
177.068371054
 51
249.7212757241
  0
ARC
  8
CYAN
 10
163.7516625324
 20
570.231476904
 40
2.9999984031
 50
8.8418594519
 51
69.7213583667
  0
ARC
  8
CYAN
 10
173.8849005637
 20
571.8077491829
 40
7.2551050726
 50
188.8417242629
 51
240.3559357577
  0
ARC
  8
CYAN
 10
171.7802828805
 20
568.1095798212
 40
3.0000055179
 50
240.3559600892
 51
292.539586818
  0
LINE
  8
CYAN
 10
172.93025
 20
565.33873
 11
176.18761
 21
566.69062
  0
ARC
  8
CYAN
 10
177.3375739379
 20
563.9197701121
 40
3.00000436
 50
65.3426037078
 51
112.5395302067
  0
ARC
  8
CYAN
 10
176.4608719479
 20
562.0099915462
 40
5.1013992656
 50
49.451325366
 51
65.3423803066
  0
ARC
  8
CYAN
 10
177.8269913926
 20
563.6067360276
 40
3.0000008561
 50
349.1863522087
 51
49.4516611589
  0
LINE
  8
CYAN
 10
180.77372
 20
563.04389
 11
180.57485
 21
562.00276
  0
ARC
  8
CYAN
 10
183.5215802267
 20
561.4399096193
 40
3.0000032633
 50
169.1862763497
 51
252.3561234676
  0
LINE
  8
CYAN
 10
182.61228
 20
558.58103
 11
183.3668
 21
558.34105
  0
ARC
  8
CYAN
 10
184.276103423
 20
561.1999208092
 40
2.9999958365
 50
252.3560142945
 51
314.2459501325
  0
LINE
  8
CYAN
 10
186.36932
 20
559.05087
 11
188.31244
 21
560.94351
  0
ARC
  8
CYAN
 10
190.9708271622
 20
558.214209184
 40
3.8100006888
 50
77.8374582645
 51
134.2459068756
  0
ARC
  8
CYAN
 10
189.652545755
 20
552.0975817571
 40
10.0670764393
 50
57.1905453801
 51
77.837430701
  0
ARC
  8
CYAN
 10
193.8882004243
 20
558.6676593722
 40
2.2499995979
 50
10.9144177939
 51
57.1904166215
  0
LINE
  8
CYAN
 10
196.0975
 20
559.09368
 11
196.29476
 21
558.07074
  0
ARC
  8
CYAN
 10
199.2404952328
 20
558.638764762
 40
3.0000013653
 50
190.9143574623
 51
259.0282490976
  0
LINE
  8
CYAN
 10
198.66952
 20
555.6936
 11
199.26268
 21
555.57861
  0
ARC
  8
CYAN
 10
199.8336577802
 20
558.5237715626
 40
2.9999987092
 50
259.028189705
 51
303.6848422177
  0
ARC
  8
CYAN
 10
209.192919563
 20
544.4821597832
 40
13.8749129197
 50
109.0944925865
 51
123.6849689259
  0
ARC
  8
CYAN
 10
205.6354540723
 20
554.7587409273
 40
3.0000023118
 50
78.4457805877
 51
109.0947374622
  0
ARC
  8
CYAN
 10
205.7856639728
 20
555.4935445894
 40
2.2500026879
 50
26.9792977455
 51
78.4454845366
  0
ARC
  8
CYAN
 10
205.1172649187
 20
555.153345498
 40
2.9999978313
 50
21.6612591119
 51
26.9782240125
  0
LINE
  8
CYAN
 10
207.90541
 20
556.2607
 11
208.97937
 21
553.5568
  0
ARC
  8
CYAN
 10
211.7674919844
 20
554.6642087491
 40
2.9999963896
 50
201.6623848182
 51
273.8860715008
  0
ARC
  8
CYAN
 10
211.6658285584
 20
556.1607595724
 40
4.4999963292
 50
273.8861263759
 51
299.1573415327
  0
LINE
  8
CYAN
 10
213.85827
 20
552.23098
 11
217.5793
 21
554.30695
  0
ARC
  8
CYAN
 10
219.771744321
 20
550.377161104
 40
4.5000058742
 50
89.5064145846
 51
119.1573157107
  0
ARC
  8
CYAN
 10
219.7559830177
 20
548.5534924845
 40
6.3237426015
 50
82.8071974533
 51
89.5059563824
  0
ARC
  8
CYAN
 10
220.1721639065
 20
551.8510757378
 40
3.0000004569
 50
2.2065139466
 51
82.8075781294
  0
LINE
  8
CYAN
 10
223.16994
 20
551.96658
 11
223.18876
 21
551.4781
  0
ARC
  8
CYAN
 10
226.1865373775
 20
551.5936020434
 40
3.0000016545
 50
182.2064706587
 51
281.9431329403
  0
ARC
  8
CYAN
 10
225.5326514434
 20
554.6849503783
 40
6.1597486923
 50
281.9431850466
 51
287.4317064179
  0
ARC
  8
CYAN
 10
226.4792024454
 20
551.6703158352
 40
3.0000049958
 50
287.4318994344
 51
310.3036307745
  0
LINE
  8
CYAN
 10
228.41972
 20
549.38243
 11
231.92674
 21
552.35695
  0
ARC
  8
CYAN
 10
233.86725688
 20
550.0690665284
 40
3.0000027569
 50
91.9844881883
 51
130.3036501467
  0
ARC
  8
CYAN
 10
233.9005599825
 20
549.1074400056
 40
3.9622057841
 50
52.3558303544
 51
91.9842428334
  0
ARC
  8
CYAN
 10
234.4882218189
 20
549.8693419972
 40
2.9999994245
 50
16.2261517552
 51
52.3555591721
  0
LINE
  8
CYAN
 10
237.36872
 20
550.70763
 11
238.16954
 21
547.95594
  0
ARC
  8
CYAN
 10
241.0500366859
 20
548.7942555897
 40
3.0000056976
 50
196.2266656181
 51
225.1000552162
  0
ARC
  8
CYAN
 10
241.9601278254
 20
549.7075207822
 40
4.2893152779
 50
225.0999601528
 51
275.3311990872
  0
ARC
  8
CYAN
 10
242.6373845472
 20
542.449730901
 40
3.0000050353
 50
65.9047698619
 51
95.3309259775
  0
ARC
  8
CYAN
 10
250.4967015821
 20
560.0234704458
 40
16.2511036561
 50
245.9049014005
 51
288.031777138
  0
ARC
  8
CYAN
 10
253.9020370981
 20
549.5626890407
 40
5.2500010939
 50
288.0317125272
 51
355.6956152378
  0
ARC
  8
CYAN
 10
244.6254620875
 20
550.2608865072
 40
14.5528137669
 50
355.69571595
 51
66.0336745164
  0
ARC
  8
CYAN
 10
223.7140133464
 20
482.6351192397
 40
85.2533878188
 50
71.6618588701
 51
82.7373261867
  0
ARC
  8
CYAN
 10
233.9227333734
 20
562.7406200111
 40
4.5000026364
 50
82.7374095474
 51
97.638656479
  0
ARC
  8
CYAN
 10
232.6488683947
 20
572.2389724722
 40
5.0833908889
 50
148.3569506984
 51
277.6385573218
  0
ARC
  8
CYAN
 10
221.9362166531
 20
578.8405437768
 40
7.4999970105
 50
328.3569277331
 51
335.0990193383
  0
ARC
  8
CYAN
 10
251.0486332347
 20
565.3263636962
 40
24.596199999
 50
122.5208407076
 51
155.0989336044
  0
ARC
  8
CYAN
 10
242.5505541862
 20
579.4657796615
 40
8.1169929486
 50
61.0660004865
 51
125.5991851993
  0
ARC
  8
CYAN
 10
245.026167485
 20
583.9440624921
 40
2.9999939925
 50
29.4561178458
 51
61.0660001379
  0
ARC
  8
CYAN
 10
367.8566933863
 20
653.3144955757
 40
138.0659305938
 50
209.4562620166
 51
216.5583909484
  0
ARC
  8
CYAN
 10
260.5698290875
 20
573.7570512443
 40
4.4999985617
 50
216.558303009
 51
235.5725530852
  0
ARC
  8
CYAN
 10
267.0584186981
 20
583.2237505056
 40
15.9769402292
 50
235.5727243039
 51
261.9765023071
  0
ARC
  8
CYAN
 10
265.4564748933
 20
571.8591600619
 40
4.5000007457
 50
261.9765236072
 51
279.4726428578
  0
ARC
  8
CYAN
 10
297.8528367863
 20
377.6970411377
 40
192.3462658916
 50
95.1534717951
 51
99.4726610336
  0
ARC
  8
CYAN
 10
281.1804546655
 20
563.0111819554
 40
6.2837802521
 50
44.2150827765
 51
95.5240095788
  0
ARC
  8
CYAN
 10
282.9964902174
 20
564.7781195478
 40
3.7499977869
 50
7.1250236169
 51
44.2151945037
  0
LINE
  8
CYAN
 10
286.71753
 20
565.24325
 11
288.84873
 21
548.19367
  0
LINE
  8
CYAN
 10
288.84873
 20
548.19367
 11
291.82556
 21
548.56578
  0
LINE
  8
CYAN
 10
291.82556
 20
548.56578
 11
289.7042
 21
565.53661
  0
ARC
  8
CYAN
 10
293.425248283
 20
566.0017296439
 40
3.750004881
 50
154.0473094131
 51
187.1248436445
  0
ARC
  8
CYAN
 10
305.025553529
 20
560.3557716614
 40
16.6513196722
 50
130.3275275306
 51
154.0474230122
  0
ARC
  8
CYAN
 10
297.1617580888
 20
569.6194332805
 40
4.4999944227
 50
93.8238101669
 51
130.3276800475
  0
ARC
  8
CYAN
 10
295.5541200845
 20
593.6729176761
 40
19.6071541337
 50
273.8237143942
 51
292.5572830559
  0
ARC
  8
CYAN
 10
295.3016135398
 20
596.5574330973
 40
22.3848998954
 50
290.3213609617
 51
332.0504893697
  0
ARC
  8
CYAN
 10
282.4026888623
 20
598.5715141272
 40
34.9844235974
 50
339.0553580201
 51
359.0166391817
  0
ARC
  8
CYAN
 10
321.4135275203
 20
597.4178201912
 40
4.0693569864
 50
358.9961961919
 51
172.1855796061
  0
ARC
  8
CYAN
 10
276.5579197245
 20
600.3691993863
 40
49.017625418
 50
315.1770589461
 51
356.4646156537
  0
ARC
  8
CYAN
 10
315.0755586154
 20
563.6729210769
 40
4.3190663319
 50
150.2550890855
 51
313.9949436123
  0
ARC
  8
CYAN
 10
220.3212746575
 20
678.4847750608
 40
153.1691538757
 50
309.6585698458
 51
325.0950029737
  0
ARC
  8
CYAN
 10
341.0603060771
 20
595.5308305367
 40
6.7664164905
 50
316.0968860665
 51
358.8714361469
  0
ARC
  8
CYAN
 10
344.0761396428
 20
595.4714210921
 40
3.749997823
 50
358.8714120055
 51
37.3509881559
  0
LINE
  8
CYAN
 10
347.05714
 20
597.74653
 11
345.23079
 21
600.13955
  0
ARC
  8
CYAN
 10
347.6155876502
 20
601.9596418206
 40
2.9999990113
 50
169.7504617152
 51
217.3510899626
  0
ARC
  8
CYAN
 10
350.4657851939
 20
441.6717368786
 40
136.4227482698
 50
20.3252750463
 51
23.2298162557
  0
ARC
  8
CYAN
 10
486.855968353
 20
500.2125854921
 40
12.0000027444
 50
198.4378751486
 51
203.229413101
  0
ARC
  8
CYAN
 10
470.5291326296
 20
494.7693488375
 40
5.2102962076
 50
18.4382041179
 51
113.8642211281
  0
ARC
  8
CYAN
 10
465.9937902193
 20
505.021243146
 40
5.9999967275
 50
280.3577258751
 51
293.8640910527
  0
ARC
  8
CYAN
 10
465.5355478482
 20
507.5282824066
 40
8.5485712162
 50
237.237495071
 51
280.3578996965
  0
ARC
  8
CYAN
 10
457.6624683362
 20
495.2940955621
 40
5.9999925875
 50
57.237409078
 51
66.7039344617
  0
ARC
  8
CYAN
 10
448.5753984954
 20
474.1902837069
 40
28.9770618765
 50
66.703842784
 51
77.5775823863
  0
ARC
  8
CYAN
 10
453.518165263
 20
496.6294092864
 40
6.0000015751
 50
77.5775850247
 51
119.5558957669
  0
ARC
  8
CYAN
 10
455.0380929509
 20
493.949062469
 40
9.0813063698
 50
119.5559322669
 51
140.283013072
  0
ARC
  8
CYAN
 10
446.3219433168
 20
501.1897208279
 40
2.2499953169
 50
247.7479171868
 51
320.282912204
  0
ARC
  8
CYAN
 10
440.5978579289
 20
487.1995184131
 40
12.8659207036
 50
67.7481283573
 51
89.6158909431
  0
ARC
  8
CYAN
 10
440.6438821366
 20
494.0652807717
 40
6.0000040864
 50
89.6158495845
 51
130.1035920681
  0
ARC
  8
CYAN
 10
418.3255582952
 20
520.565779657
 40
28.6465544765
 50
252.6500458811
 51
310.1035798583
  0
ARC
  8
CYAN
 10
407.9937115395
 20
487.4956007002
 40
6.0000008157
 50
72.6500946733
 51
156.2645130189
  0
ARC
  8
CYAN
 10
408.5058987125
 20
487.2703763278
 40
6.5595200003
 50
156.2644213809
 51
165.0927149567
  0
ARC
  8
CYAN
 10
400.7176335543
 20
489.3437340427
 40
1.5000014735
 50
292.2629165554
 51
345.0927083238
  0
ARC
  8
CYAN
 10
400.5755619931
 20
489.6907794498
 40
1.8750012643
 50
216.8698476516
 51
292.262922124
  0
ARC
  8
CYAN
 10
393.381246
 20
484.677152
 40
6.8954071419
 50
34.3290383046
 51
92.5408593412
  0
ARC
  8
CYAN
 10
391.350541701
 20
512.1907827535
 40
20.6970149227
 50
248.1048393533
 51
274.7809337207
  0
ARC
  8
CYAN
 10
385.8698957535
 20
498.5538953102
 40
6.0000023303
 50
213.5264813405
 51
248.1047528823
  0
ARC
  8
CYAN
 10
487.1761227867
 20
565.6744335248
 40
127.5241492556
 50
210.4610117288
 51
213.5265014763
  0
ARC
  8
CYAN
 10
372.081741929
 20
497.984107957
 40
5.9999934321
 50
30.4610537773
 51
56.2503408489
  0
ARC
  8
CYAN
 10
368.7980908198
 20
493.0697296031
 40
11.9104485086
 50
56.2502978023
 51
72.0856727919
  0
ARC
  8
CYAN
 10
370.6161099092
 20
498.6936300141
 40
5.9999959674
 50
72.0856329966
 51
90.2243128333
  0
ARC
  8
CYAN
 10
370.3604719651
 20
563.9942094901
 40
59.3010838909
 50
240.6848733798
 51
270.2242983724
  0
ARC
  8
CYAN
 10
345.7323907183
 20
520.1346996738
 40
9.0000005307
 50
231.5220522818
 51
240.6851184333
  0
ARC
  8
CYAN
 10
333.8176939017
 20
505.1441103529
 40
10.1488315074
 50
51.5217827201
 51
138.8148449851
  0
ARC
  8
CYAN
 10
329.5664499411
 20
508.863822537
 40
4.4999967652
 50
138.8146017112
 51
161.3002682694
  0
ARC
  8
CYAN
 10
347.5934203307
 20
502.7622093261
 40
23.5315848546
 50
161.3004655753
 51
194.6373365322
  0
LINE
  8
CYAN
 10
324.82556
 20
496.81578
 11
348.82556
 21
499.51578
  0
LINE
  8
CYAN
 10
348.82556
 20
499.51578
 11
349.16094
 21
496.53458
  0
LINE
  8
CYAN
 10
349.16094
 20
496.53458
 11
325.16094
 21
493.83458
  0
ARC
  8
CYAN
 10
366.5948357943
 20
494.4444260284
 40
41.4383835697
 50
180.8432487471
 51
197.513894828
  0
ARC
  8
CYAN
 10
331.3687695245
 20
483.3282907918
 40
4.4999996386
 50
197.5138154397
 51
224.4623345714
  0
ARC
  8
CYAN
 10
335.8245160254
 20
487.7011906755
 40
10.7430702191
 50
224.4623500889
 51
296.2470595891
  0
ARC
  8
CYAN
 10
358.9118588852
 20
441.6200502623
 40
40.7984199807
 50
36.811424356
 51
116.7075358136
  0
ARC
  8
CYAN
 10
396.0755611494
 20
470.5282796612
 40
6.3375005775
 50
224.760260612
 51
282.3891105702
  0
ARC
  8
CYAN
 10
396.4697960816
 20
468.7335662828
 40
4.4999975729
 50
282.3891208304
 51
344.5912253812
  0
ARC
  8
CYAN
 10
407.2184133321
 20
465.7711276983
 40
6.6493887405
 50
53.4977625811
 51
164.5911833702
  0
ARC
  8
CYAN
 10
413.8506670351
 20
474.7333828174
 40
4.499997162
 50
233.4978429499
 51
281.9815290186
  0
ARC
  8
CYAN
 10
413.700563195
 20
475.4407824623
 40
5.2231468145
 50
281.9813116388
 51
333.258694179
  0
ARC
  8
CYAN
 10
423.7233627042
 20
470.3907790325
 40
6.0000009009
 50
139.4759833484
 51
153.2586625089
  0
ARC
  8
CYAN
 10
432.923587345
 20
462.5264222249
 40
18.1033988303
 50
74.2279405722
 51
139.4761019757
  0
ARC
  8
CYAN
 10
438.6597239718
 20
482.8352908334
 40
2.9999991795
 50
254.2279159247
 51
309.4718361528
  0
ARC
  8
CYAN
 10
467.3760451922
 20
447.9647607327
 40
42.1727910148
 50
114.6078483758
 51
129.4718897356
  0
ARC
  8
CYAN
 10
451.3766008725
 20
482.8979597794
 40
3.7500033209
 50
63.0671439475
 51
114.6080077136
  0
ARC
  8
CYAN
 10
464.9443387096
 20
509.6032954762
 40
26.2042695746
 50
243.0669753099
 51
269.7476792713
  0
ARC
  8
CYAN
 10
464.802555177
 20
477.399335608
 40
6.0000024055
 50
76.0184733042
 51
89.748042789
  0
ARC
  8
CYAN
 10
463.9359034138
 20
473.9187787722
 40
9.5868340387
 50
64.4177445052
 51
76.018221928
  0
ARC
  8
CYAN
 10
447.0755564098
 20
448.6282827873
 40
39.9093205636
 50
46.0984304487
 51
58.2514123763
  0
ARC
  8
CYAN
 10
477.3498701422
 20
480.0862299375
 40
3.7500027348
 50
226.0984862004
 51
266.4531894858
  0
ARC
  8
CYAN
 10
477.1781234828
 20
479.3428033251
 40
2.9999982659
 50
268.8493562241
 51
359.3192462253
  0
ARC
  8
CYAN
 10
434.9846514652
 20
476.2537211962
 40
45.2962924037
 50
3.8652595652
 51
15.032905392
  0
ARC
  8
CYAN
 10
467.1414357548
 20
484.889923319
 40
12.0000048787
 50
15.0328091175
 51
20.3251364008
  0
ARC
  8
CYAN
 10
144.9076380574
 20
482.3268982133
 40
6.9468842804
 50
90.2004033635
 51
175.0112519358
  0
ARC
  8
CYAN
 10
142.4700214655
 20
482.5396737179
 40
4.4999989001
 50
175.0111764637
 51
211.2505157054
  0
ARC
  8
CYAN
 10
115.3336300001
 20
466.0725499646
 40
27.2419277344
 50
328.9786506598
 51
31.2505570462
  0
ARC
  8
CYAN
 10
141.8929506591
 20
450.1006337384
 40
3.7500005987
 50
148.9787295191
 51
191.0233465002
  0
ARC
  8
CYAN
 10
145.3189364398
 20
450.7680131035
 40
7.2403836416
 50
191.023240331
 51
266.8183294265
  0
ARC
  8
CYAN
 10
144.5840774026
 20
437.5480355754
 40
6.0000024422
 50
64.651039943
 51
86.8184259354
  0
ARC
  8
CYAN
 10
143.452438298
 20
435.1593823306
 40
8.6431580158
 50
7.6290579896
 51
64.6508622438
  0
ARC
  8
CYAN
 10
127.5924290521
 20
432.347424664
 40
24.7454790794
 50
358.1898757757
 51
9.2072215202
  0
LINE
  8
CYAN
 10
152.32556
 20
431.56578
 11
135.07556
 21
431.56578
  0
LINE
  8
CYAN
 10
135.07556
 20
431.56578
 11
135.07556
 21
428.56578
  0
LINE
  8
CYAN
 10
135.07556
 20
428.56578
 11
152.32556
 21
428.56578
  0
ARC
  8
CYAN
 10
4914.2407376162
 20
105.6067296949
 40
4772.8543563559
 50
176.1200700739
 51
176.2100214186
  0
ARC
  8
CYAN
 10
146.0738482341
 20
421.5643544001
 40
5.770129877
 50
265.0459664172
 51
355.2787923243
  0
ARC
  8
CYAN
 10
148.4705406757
 20
449.7907860361
 40
34.0981223569
 50
240.176892981
 51
265.1296410264
  0
ARC
  8
CYAN
 10
128.5287771187
 20
415.0030643643
 40
6.0000012011
 50
60.1767941935
 51
82.3892640059
  0
ARC
  8
CYAN
 10
123.0755463965
 20
374.1907799356
 40
47.1749970797
 50
82.3893535013
 51
98.1529525923
  0
ARC
  8
CYAN
 10
117.0235576755
 20
416.4344655717
 40
4.4999980334
 50
98.1531492024
 51
116.8389438206
  0
ARC
  8
CYAN
 10
109.61245645
 20
431.0813187177
 40
11.9150782215
 50
220.6729549833
 51
296.8387006736
  0
ARC
  8
CYAN
 10
110.231810632
 20
432.3157777053
 40
13.2001187481
 50
167.8134559136
 51
222.9853920555
  0
ARC
  8
CYAN
 10
100.9946422625
 20
434.3106548291
 40
3.7499963031
 50
141.978534685
 51
167.8134749158
  0
ARC
  8
CYAN
 10
89.6411701777
 20
443.1878078869
 40
10.6619839492
 50
321.9785487274
 51
47.6364581204
  0
ARC
  8
CYAN
 10
111.3955480734
 20
462.794276422
 40
18.7040685622
 50
174.5652443081
 51
218.8332441598
  0
LINE
  8
CYAN
 10
92.77556
 20
464.56578
 11
115.27556
 21
464.56578
  0
LINE
  8
CYAN
 10
115.27556
 20
464.56578
 11
115.27556
 21
467.56578
  0
LINE
  8
CYAN
 10
115.27556
 20
467.56578
 11
92.77556
 21
467.56578
  0
ARC
  8
CYAN
 10
116.441691937
 20
469.3899797198
 40
23.7363330251
 50
153.0512703526
 51
184.4076777331
  0
ARC
  8
CYAN
 10
101.9684194145
 20
476.7481540054
 40
7.5000050434
 50
139.9540540683
 51
153.0511322744
  0
ARC
  8
CYAN
 10
86.8141500663
 20
489.4848009868
 40
12.2958040031
 50
319.9541162229
 51
32.3589361792
  0
ARC
  8
CYAN
 10
105.6281659432
 20
499.815795924
 40
9.2242702348
 50
184.597815078
 51
203.9875390481
  0
ARC
  8
CYAN
 10
103.1618600029
 20
499.6174400939
 40
6.7500006402
 50
171.9253219143
 51
184.5976778029
  0
ARC
  8
CYAN
 10
112.5561163519
 20
498.2846730178
 40
16.2383261211
 50
132.901728657
 51
171.9253148024
  0
ARC
  8
CYAN
 10
108.607447992
 20
500.8527882013
 40
11.7250645261
 50
101.7084031234
 51
127.3012586952
  0
ARC
  8
CYAN
 10
107.5978257552
 20
505.7243302453
 40
6.7500008133
 50
76.3183766319
 51
101.7081600583
  0
ARC
  8
CYAN
 10
124.4655203984
 20
575.0157851838
 40
64.5649685134
 50
256.31854772
 51
268.7664360537
  0
ARC
  8
CYAN
 10
124.7705732489
 20
536.4532830153
 40
26.0427222633
 50
266.2682163994
 51
299.3747417313
  0
ARC
  8
CYAN
 10
134.9698039238
 20
518.3338757512
 40
5.2500017592
 50
299.3748306858
 51
310.552013502
  0
ARC
  8
CYAN
 10
142.9985962864
 20
508.9506081906
 40
7.099379477
 50
17.3337703169
 51
130.5519001387
  0
ARC
  8
CYAN
 10
120.8507391176
 20
503.1299675637
 40
29.9937057081
 50
357.9666981913
 51
15.3421519007
  0
LINE
  8
CYAN
 10
150.82556
 20
502.06578
 11
133.57556
 21
502.06578
  0
LINE
  8
CYAN
 10
133.57556
 20
502.06578
 11
133.57556
 21
499.06578
  0
LINE
  8
CYAN
 10
133.57556
 20
499.06578
 11
150.82556
 21
499.06578
  0
ARC
  8
CYAN
 10
334.47672
 20
497.56578
 40
183.6572856419
 50
179.5320380322
 51
180.4679619678
  0
ARC
  8
CYAN
 10
144.381218636
 20
495.6847582606
 40
6.4555954939
 50
280.4128389084
 51
3.3836742878
  0
ARC
  8
CYAN
 10
144.8702035962
 20
493.0237175474
 40
3.7500005561
 50
270.2007098468
 51
280.4131966112
  0
ARC
  8
CYAN
 10
218.3388778752
 20
493.1400816934
 40
14.2665344517
 50
174.0589572961
 51
206.5386231754
  0
ARC
  8
CYAN
 10
281.3394587842
 20
532.5268780266
 40
88.5112786687
 50
211.1318117101
 51
221.3986013286
  0
ARC
  8
CYAN
 10
208.1935779618
 20
468.04331894
 40
8.999999006
 50
33.1812296962
 51
41.3984293235
  0
ARC
  8
CYAN
 10
190.4505637958
 20
456.440769751
 40
30.1998504058
 50
7.4638705324
 51
33.18146158
  0
ARC
  8
CYAN
 10
224.8563993956
 20
460.9483107497
 40
4.4999975647
 50
187.463827429
 51
250.2869954668
  0
ARC
  8
CYAN
 10
225.6346449062
 20
463.1203200832
 40
6.8072233056
 50
250.287016493
 51
287.8414550205
  0
ARC
  8
CYAN
 10
226.801133129
 20
459.4961957242
 40
2.9999969999
 50
287.8411629498
 51
299.2726497876
  0
ARC
  8
CYAN
 10
230.7551474035
 20
452.4424009997
 40
5.0864267398
 50
18.6120739275
 51
119.2729996556
  0
ARC
  8
CYAN
 10
239.8081120538
 20
455.7285193589
 40
4.5474387367
 50
201.4471623107
 51
303.8794523084
  0
ARC
  8
CYAN
 10
240.6707111441
 20
454.4438101137
 40
3.000003751
 50
303.8797866712
 51
332.4142169056
  0
ARC
  8
CYAN
 10
362.4599586875
 20
390.8118307965
 40
134.4105111632
 50
146.5822948551
 51
152.4140002571
  0
ARC
  8
CYAN
 10
247.7664698722
 20
466.4891092355
 40
2.9999937064
 50
326.5823721138
 51
14.4416617238
  0
ARC
  8
CYAN
 10
263.7314679073
 20
470.6006032641
 40
13.4859259041
 50
131.0408508738
 51
194.4416738213
  0
ARC
  8
CYAN
 10
256.8464345596
 20
478.5095265076
 40
2.9999948024
 50
114.3547807857
 51
131.0407774964
  0
ARC
  8
CYAN
 10
268.7189334615
 20
452.2820348291
 40
31.7895336997
 50
88.9065819427
 51
114.3549955626
  0
ARC
  8
CYAN
 10
267.7338774109
 20
397.3245541904
 40
86.7558280948
 50
76.3972318962
 51
88.9487529125
  0
ARC
  8
CYAN
 10
292.1695674934
 20
491.9331897068
 40
11.0482182881
 50
248.5976097193
 51
304.7466791748
  0
ARC
  8
CYAN
 10
300.1763319028
 20
480.3900400458
 40
3.0000051015
 50
58.0126646909
 51
124.7464833869
  0
ARC
  8
CYAN
 10
307.9873561266
 20
492.8964005392
 40
11.7452026697
 50
238.0125565891
 51
286.1362916014
  0
ARC
  8
CYAN
 10
312.0853912128
 20
478.7321095035
 40
3.0000010288
 50
29.3386096146
 51
106.1363202018
  0
ARC
  8
CYAN
 10
331.5370491327
 20
489.6651241236
 40
19.3136227136
 50
209.338638376
 51
225.8136317207
  0
ARC
  8
CYAN
 10
328.7533580668
 20
486.591129042
 40
15.1698226269
 50
225.2605315023
 51
236.4997196404
  0
ARC
  8
CYAN
 10
317.0688838747
 20
468.9379664801
 40
5.9999928088
 50
38.9942950575
 51
56.4999062975
  0
ARC
  8
CYAN
 10
311.6893052008
 20
464.5825476233
 40
12.9216645813
 50
6.5913096266
 51
38.9943252595
  0
ARC
  8
CYAN
 10
241.5460705036
 20
463.7485760863
 40
83.0118371743
 50
354.8139241391
 51
1.5995700969
  0
ARC
  8
CYAN
 10
319.73650782
 20
456.6518432027
 40
4.5000030005
 50
329.621849001
 51
354.8139825512
  0
ARC
  8
CYAN
 10
319.0020869746
 20
457.0823659999
 40
5.3513101465
 50
291.7861462064
 51
329.6216917422
  0
ARC
  8
CYAN
 10
319.8709465527
 20
455.1184699305
 40
3.2061596253
 50
251.9163874456
 51
290.3936285956
  0
ARC
  8
CYAN
 10
319.8502580396
 20
454.9079846548
 40
2.9999971856
 50
221.7190713805
 51
251.0441394047
  0
ARC
  8
CYAN
 10
323.010497852
 20
457.7255761763
 40
7.2339005447
 50
176.6335825213
 51
221.719266783
  0
ARC
  8
CYAN
 10
308.3020197592
 20
458.5907826196
 40
7.5000028755
 50
356.633483579
 51
5.5526816434
  0
ARC
  8
CYAN
 10
295.8781698378
 20
457.382950459
 40
19.9824267346
 50
5.5527421626
 51
33.3656906278
  0
ARC
  8
CYAN
 10
310.7528136614
 20
467.2276291305
 40
2.145474906
 50
32.2630837347
 51
121.0181465195
  0
ARC
  8
CYAN
 10
299.3403188483
 20
503.7141602234
 40
36.1483878284
 50
254.7913559093
 51
286.5664893725
  0
ARC
  8
CYAN
 10
288.6768409855
 20
464.489401307
 40
4.5000004813
 50
74.7914556202
 51
118.7786323323
  0
ARC
  8
CYAN
 10
273.9398081146
 20
491.3197495324
 40
26.1112347719
 50
269.0814763503
 51
298.7785391842
  0
ARC
  8
CYAN
 10
273.4490929874
 20
460.7124469735
 40
4.5000012578
 50
89.0814839436
 51
137.6070440646
  0
ARC
  8
CYAN
 10
402.7318101969
 20
342.6907802359
 40
179.5518072713
 50
137.6071696436
 51
142.6903166865
  0
ARC
  8
CYAN
 10
263.5006778366
 20
448.7936938047
 40
4.4999964091
 50
142.6905466986
 51
158.1446944679
  0
ARC
  8
CYAN
 10
276.7420100511
 20
443.4826101787
 40
18.7667580633
 50
158.1444202925
 51
169.9624659848
  0
ARC
  8
CYAN
 10
262.6936153667
 20
445.9691585933
 40
4.500002433
 50
169.9618036711
 51
179.7379486195
  0
ARC
  8
CYAN
 10
-197.3597021231
 20
448.0670849223
 40
455.5580984941
 50
358.1474101057
 51
359.7387303408
  0
ARC
  8
CYAN
 10
253.4626273771
 20
433.4852056106
 40
4.5000046966
 50
300.1319696352
 51
358.1474261505
  0
ARC
  8
CYAN
 10
251.6429104383
 20
436.6203920842
 40
8.1250238636
 50
262.4514749332
 51
300.1318169207
  0
ARC
  8
CYAN
 10
249.680474928
 20
421.3677225754
 40
7.2534962586
 50
82.9116038986
 51
152.2715599734
  0
ARC
  8
CYAN
 10
239.9406013873
 20
426.4874656771
 40
3.7499989142
 50
315.7422734648
 51
332.271203392
  0
ARC
  8
CYAN
 10
235.958907823
 20
430.3672500651
 40
9.3093703298
 50
220.8307860591
 51
315.7425220292
  0
ARC
  8
CYAN
 10
225.5101235533
 20
421.3383134676
 40
4.5000028927
 50
40.8306511958
 51
82.618155849
  0
ARC
  8
CYAN
 10
224.0110879958
 20
409.7675599145
 40
16.1674552877
 50
82.6182075841
 51
102.2686949823
  0
ARC
  8
CYAN
 10
218.9881179421
 20
433.9826917728
 40
8.5653006998
 50
177.831696152
 51
280.6806101494
  0
ARC
  8
CYAN
 10
446.5938791686
 20
435.1853877387
 40
236.1665635857
 50
177.9639120583
 51
180.2131621706
  0
LINE
  8
CYAN
 10
210.57642
 20
443.57614
 11
228.57642
 21
442.07614
  0
LINE
  8
CYAN
 10
228.57642
 20
442.07614
 11
228.82556
 21
445.06578
  0
LINE
  8
CYAN
 10
228.82556
 20
445.06578
 11
210.82556
 21
446.56578
  0
ARC
  8
CYAN
 10
162.07556
 20
440.75328
 40
49.0952915894
 50
6.799321442
 51
21.2731654939
  0
ARC
  8
CYAN
 10
189.4974375101
 20
451.3235817957
 40
19.707092856
 50
21.5610229536
 51
63.3798629108
  0
ARC
  8
CYAN
 10
202.3603006551
 20
476.987640527
 40
8.9999996275
 50
239.5121491536
 51
243.3799985137
  0
ARC
  8
CYAN
 10
138.0284385772
 20
367.7215907715
 40
117.7977058234
 50
59.5119629516
 51
67.1009647608
  0
ARC
  8
CYAN
 10
185.6155071691
 20
480.3812520776
 40
4.4999980912
 50
220.3497564597
 51
247.1009656361
  0
ARC
  8
CYAN
 10
188.6949301432
 20
482.9973947771
 40
8.5406723515
 50
136.2158254239
 51
220.3497624883
  0
ARC
  8
CYAN
 10
179.2802082224
 20
492.0208194807
 40
4.5000017963
 50
316.2156284528
 51
321.9157422392
  0
ARC
  8
CYAN
 10
250.1859914788
 20
436.4553305044
 40
85.5841458901
 50
134.2757739095
 51
141.9158973984
  0
ARC
  8
CYAN
 10
187.2970912497
 20
500.9544702445
 40
4.4999969946
 50
314.2762025267
 51
318.7143241708
  0
ARC
  8
CYAN
 10
196.8963842728
 20
492.5254399323
 40
8.2747820075
 50
42.6414870934
 51
138.7138222229
  0
ARC
  8
CYAN
 10
199.6731398501
 20
495.0825104521
 40
4.4999997383
 50
354.0589858232
 51
42.641490034
  0
LINE
  8
CYAN
 10
132.07556
 20
697.06578
 11
131.32556
 21
674.56578
  0
LINE
  8
CYAN
 10
131.32556
 20
674.56578
 11
128.32722
 21
674.66572
  0
LINE
  8
CYAN
 10
128.32722
 20
674.66572
 11
129.07722
 21
697.16572
  0
ARC
  8
CYAN
 10
128.668982628
 20
678.4337969868
 40
18.7363709806
 50
88.7515122547
 51
135.7117270686
  0
ARC
  8
CYAN
 10
110.1406831513
 20
696.5216989017
 40
7.1570712639
 50
242.5907977508
 51
315.6298136673
  0
ARC
  8
CYAN
 10
101.6670747741
 20
680.1810108611
 40
11.2499959815
 50
62.5904798754
 51
67.885192016
  0
ARC
  8
CYAN
 10
98.1231124799
 20
671.4594898673
 40
20.664059779
 50
67.8854646407
 51
105.9872097719
  0
ARC
  8
CYAN
 10
94.8527566483
 20
681.3956868153
 40
10.2195489264
 50
103.7035641476
 51
163.369652396
  0
ARC
  8
CYAN
 10
79.3116372871
 20
686.0376116551
 40
6.0000027697
 50
339.9449130754
 51
343.3700973292
  0
ARC
  8
CYAN
 10
97.1806296726
 20
679.51425361
 40
13.0224862648
 50
159.9444425395
 51
194.1902949929
  0
ARC
  8
CYAN
 10
78.7385880428
 20
674.8509759621
 40
6.0000019506
 50
6.5093664115
 51
14.1907334956
  0
ARC
  8
CYAN
 10
389.1357855762
 20
710.2654631876
 40
306.410955191
 50
186.5089561913
 51
188.6762207729
  0
ARC
  8
CYAN
 10
77.3342092366
 20
662.6855451279
 40
9.0000015153
 50
333.5127032191
 51
8.6762184072
  0
ARC
  8
CYAN
 10
116.9630543027
 20
642.9382600366
 40
35.2764101476
 50
153.5126437281
 51
174.6310185026
  0
ARC
  8
CYAN
 10
85.5749612148
 20
645.8881889387
 40
3.7500010877
 50
174.6313870786
 51
180.5611856556
  0
ARC
  8
CYAN
 10
90.9505616111
 20
645.9407763155
 40
9.1258586985
 50
180.5607723932
 51
226.6766147131
  0
ARC
  8
CYAN
 10
87.7766885816
 20
642.5755008318
 40
4.5000021196
 50
226.6766477322
 51
252.5458945259
  0
ARC
  8
CYAN
 10
94.6488755842
 20
664.4324744689
 40
27.4118822426
 50
252.5459882552
 51
266.709678371
  0
LINE
  8
CYAN
 10
93.07556
 20
637.06578
 11
95.32556
 21
658.06578
  0
LINE
  8
CYAN
 10
95.32556
 20
658.06578
 11
98.30849
 21
657.74618
  0
LINE
  8
CYAN
 10
98.30849
 20
657.74618
 11
96.05849
 21
636.74618
  0
ARC
  8
CYAN
 10
97.6459739621
 20
666.8536904545
 40
30.1493331783
 50
266.9817504232
 51
286.1061004934
  0
ARC
  8
CYAN
 10
104.7615368137
 20
642.2111061173
 40
4.5000018516
 50
286.106052787
 51
337.7291344976
  0
ARC
  8
CYAN
 10
68.7512526664
 20
656.9584980321
 40
43.4130604907
 50
337.72927544
 51
345.3491976115
  0
ARC
  8
CYAN
 10
108.5759086045
 20
646.5472337619
 40
2.2499988421
 50
345.3492598021
 51
349.4302205609
  0
ARC
  8
CYAN
 10
114.5034359244
 20
645.4411665911
 40
3.7798406844
 50
90.3893567241
 51
169.4302767542
  0
ARC
  8
CYAN
 10
114.4981402017
 20
646.220989947
 40
2.9999993472
 50
60.1844111815
 51
90.38942725
  0
ARC
  8
CYAN
 10
130.5755517201
 20
674.2759999323
 40
29.3352251983
 50
240.1843814724
 51
300.7525237264
  0
ARC
  8
CYAN
 10
147.41428
 20
645.24322
 40
4.2417986977
 50
11.1815076797
 51
115.6883899661
  0
ARC
  8
CYAN
 10
180.1381612469
 20
650.7819656644
 40
28.9493453675
 50
189.3759394882
 51
202.7129336075
  0
ARC
  8
CYAN
 10
157.5848456818
 20
641.3417099053
 40
4.5000003503
 50
202.7127335605
 51
216.0331524286
  0
ARC
  8
CYAN
 10
163.9652748613
 20
645.9830563294
 40
12.3899923111
 50
216.0333404532
 51
249.8558531118
  0
ARC
  8
CYAN
 10
161.2480746465
 20
638.5757141708
 40
4.5000053111
 50
249.8561441456
 51
271.4601209382
  0
ARC
  8
CYAN
 10
160.4517431235
 20
669.8227486881
 40
35.7571854465
 50
271.4599002656
 51
277.429810928
  0
LINE
  8
CYAN
 10
165.07556
 20
634.36578
 11
162.07556
 21
659.86578
  0
LINE
  8
CYAN
 10
162.07556
 20
659.86578
 11
165.05501
 21
660.2163
  0
LINE
  8
CYAN
 10
165.05501
 20
660.2163
 11
167.87975
 21
636.20602
  0
ARC
  8
CYAN
 10
166.404545614
 20
661.0523764287
 40
24.890111606
 50
273.3978372635
 51
294.4857920954
  0
ARC
  8
CYAN
 10
174.8555889173
 20
642.4960693462
 40
4.4999996531
 50
294.4857515948
 51
307.7685775924
  0
ARC
  8
CYAN
 10
173.707409855
 20
643.9779595972
 40
6.3746499872
 50
307.7686365331
 51
12.6328223218
  0
ARC
  8
CYAN
 10
175.5366858143
 20
644.387933878
 40
4.4999955001
 50
12.6330429042
 51
27.0300259233
  0
ARC
  8
CYAN
 10
212.4241456978
 20
663.207219847
 40
36.9107545661
 50
184.5444021132
 51
207.0297913415
  0
ARC
  8
CYAN
 10
184.6011301022
 20
660.9958375977
 40
8.9999966352
 50
175.0308590165
 51
184.5446131698
  0
ARC
  8
CYAN
 10
285.867160571
 20
652.1907837572
 40
110.6481048321
 50
167.6874137506
 51
175.0306629439
  0
ARC
  8
CYAN
 10
185.0915814981
 20
674.1865664742
 40
7.4999987187
 50
163.8532092083
 51
167.6871305157
  0
ARC
  8
CYAN
 10
166.7373804451
 20
679.500418575
 40
11.6079504241
 50
343.8534813959
 51
50.8416768068
  0
ARC
  8
CYAN
 10
168.3842131398
 20
681.5226281827
 40
9.0000030279
 50
50.841709953
 51
69.0344037462
  0
ARC
  8
CYAN
 10
159.2484764772
 20
657.6805645053
 40
34.5324467959
 50
69.0343296925
 51
74.1132983987
  0
ARC
  8
CYAN
 10
166.2376229319
 20
682.2377914486
 40
9.0000054064
 50
74.1132873116
 51
82.722239188
  0
ARC
  8
CYAN
 10
164.3255564433
 20
667.2655799855
 40
24.0938158713
 50
82.7222664108
 51
97.7429513085
  0
ARC
  8
CYAN
 10
162.2920328157
 20
682.2217798239
 40
9.0000048237
 50
97.7432782981
 51
103.3302509396
  0
ARC
  8
CYAN
 10
149.5200987355
 20
736.1249198437
 40
46.3955798755
 50
270.7654280868
 51
283.3299119977
  0
ARC
  8
CYAN
 10
150.0998144783
 20
692.7332113
 40
2.9999989866
 50
242.7391893822
 51
270.7654091094
  0
ARC
  8
CYAN
 10
151.1195624334
 20
694.7122221679
 40
5.2262896027
 50
232.8456482713
 51
242.7390150762
  0
ARC
  8
CYAN
 10
149.7749536627
 20
692.9378458139
 40
2.9999957784
 50
209.5236405333
 51
232.8458097906
  0
ARC
  8
CYAN
 10
138.7880582006
 20
686.7157816101
 40
9.6264033461
 50
29.5235996154
 51
66.8307031712
  0
ARC
  8
CYAN
 10
134.0178372
 20
673.1617204
 40
23.9828377404
 50
69.0945445692
 51
94.6452507225
  0
ARC
  8
CYAN
 10
317.7056785439
 20
686.3754719612
 40
3.8486239617
 50
162.8338311707
 51
270.3504718837
  0
LINE
  8
CYAN
 10
317.72922
 20
682.52692
 11
324.9579
 21
682.57115
  0
ARC
  8
CYAN
 10
325.003784798
 20
675.0712930151
 40
7.4999973473
 50
29.4562243062
 51
90.3505363468
  0
ARC
  8
CYAN
 10
325.0818800277
 20
674.9363053322
 40
7.5000000596
 50
330.0334683814
 51
30.6476195719
  0
LINE
  8
CYAN
 10
331.57926
 20
671.1901
 11
328.76502
 21
666.30912
  0
ARC
  8
CYAN
 10
332.3327090066
 20
664.252083035
 40
4.1182284933
 50
150.0333659868
 51
246.2144862645
  0
LINE
  8
CYAN
 10
330.67177
 20
660.48365
 11
336.61159
 21
657.86566
  0
ARC
  8
CYAN
 10
334.4081201528
 20
652.8662960461
 40
5.4634164505
 50
298.2106890622
 51
66.2145118195
  0
LINE
  8
CYAN
 10
336.99076
 20
648.05185
 11
330.31037
 21
644.46826
  0
ARC
  8
CYAN
 10
331.9880595961
 20
641.3407767402
 40
3.5490553562
 50
118.2106392848
 51
227.6643915608
  0
ARC
  8
CYAN
 10
326.5672126907
 20
635.3908483697
 40
4.4999960655
 50
40.1542494619
 51
47.6637762784
  0
ARC
  8
CYAN
 10
227.925663039
 20
552.1656518235
 40
133.5604030762
 50
37.4357169867
 51
40.1547567217
  0
ARC
  8
CYAN
 10
329.2131907442
 20
629.7059181412
 40
6.0000010337
 50
6.2033197877
 51
37.4356637336
  0
ARC
  8
CYAN
 10
327.9238294472
 20
629.5657794344
 40
7.2969557019
 50
265.1112226344
 51
6.2032702728
  0
ARC
  8
CYAN
 10
328.3251676767
 20
629.6261673996
 40
7.4018594961
 50
240.5197629044
 51
262.0542611119
  0
ARC
  8
CYAN
 10
322.0989045906
 20
618.6123991544
 40
5.2499958214
 50
60.5198878876
 51
98.6070052099
  0
ARC
  8
CYAN
 10
322.2005566928
 20
617.9407747936
 40
5.9292692803
 50
98.6069523962
 51
196.5439595617
  0
ARC
  8
CYAN
 10
310.7651509772
 20
614.5438571707
 40
6.0000036741
 50
12.2067733301
 51
16.5444213159
  0
ARC
  8
CYAN
 10
356.0341734823
 20
624.3367065062
 40
40.3161306279
 50
192.2064099016
 51
195.4226895124
  0
ARC
  8
CYAN
 10
311.3858690931
 20
612.0195150584
 40
6.0000036019
 50
351.4704722404
 51
15.4224584489
  0
ARC
  8
CYAN
 10
310.7271996791
 20
612.1182797698
 40
6.6660365327
 50
259.8236108163
 51
351.47065202
  0
ARC
  8
CYAN
 10
311.4671725611
 20
616.1135344359
 40
10.7292011209
 50
232.5131329503
 51
259.7037036129
  0
ARC
  8
CYAN
 10
310.4147968468
 20
614.7414434115
 40
9.0000023404
 50
216.3727336454
 51
232.5132987936
  0
ARC
  8
CYAN
 10
299.6145941702
 20
606.7867893866
 40
4.4134572623
 50
36.3726133927
 51
155.6405944441
  0
LINE
  8
CYAN
 10
295.59404
 20
608.60716
 11
293.05443
 21
601.58426
  0
ARC
  8
CYAN
 10
286.7094560756
 20
603.8651498369
 40
6.7424886021
 50
204.5308712048
 51
340.227514662
  0
ARC
  8
CYAN
 10
152.7287617828
 20
540.892346349
 40
141.2998440613
 50
25.2048786349
 51
27.7595144778
  0
ARC
  8
CYAN
 10
275.1117243958
 20
605.3070850804
 40
2.99999553
 50
27.7595701489
 51
55.8039720527
  0
ARC
  8
CYAN
 10
274.8256317474
 20
604.8860601004
 40
3.5090250353
 50
55.8038770609
 51
130.7713722324
  0
LINE
  8
CYAN
 10
272.53409
 20
607.54352
 11
266.86883
 21
602.65831
  0
ARC
  8
CYAN
 10
263.065518852
 20
607.0689099689
 40
5.8239649531
 50
232.3301234954
 51
310.7715766205
  0
ARC
  8
CYAN
 10
262.2564324783
 20
606.0209361768
 40
4.5000050485
 50
193.575445664
 51
232.3301227975
  0
ARC
  8
CYAN
 10
240.0111256318
 20
600.64933863
 40
18.3846565592
 50
13.5753901311
 51
40.1180092726
  0
ARC
  8
CYAN
 10
248.3348312833
 20
607.663019719
 40
7.4999977134
 50
40.1180246355
 51
115.1809842574
  0
ARC
  8
CYAN
 10
278.6722856112
 20
543.1369765756
 40
78.8019708898
 50
115.1809556553
 51
122.4789306636
  0
ARC
  8
CYAN
 10
234.7454856811
 20
612.1442190594
 40
3.0000050481
 50
262.0924541122
 51
302.4790056306
  0
ARC
  8
CYAN
 10
235.5318025255
 20
617.8051648643
 40
8.7153004547
 50
233.3183662429
 51
262.0922211142
  0
ARC
  8
CYAN
 10
236.3607888035
 20
616.5094478772
 40
8.2970983245
 50
153.9418736341
 51
223.331942829
  0
LINE
  8
CYAN
 10
228.9071
 20
620.15422
 11
276.00725
 21
631.14425
  0
LINE
  8
CYAN
 10
276.00725
 20
631.14425
 11
275.32556
 21
634.06578
  0
LINE
  8
CYAN
 10
275.32556
 20
634.06578
 11
230.32556
 21
623.56578
  0
ARC
  8
CYAN
 10
264.2005376817
 20
677.6907986441
 40
63.8516386333
 50
222.2920258865
 51
237.9589739745
  0
ARC
  8
CYAN
 10
221.4062523311
 20
638.7618745209
 40
6.0000008686
 50
183.8024984445
 51
222.2919809798
  0
ARC
  8
CYAN
 10
264.4821300947
 20
641.6249078273
 40
49.1709193765
 50
174.8114373018
 51
183.8025565779
  0
LINE
  8
CYAN
 10
215.51269
 20
646.07162
 11
257.51269
 21
648.69662
  0
LINE
  8
CYAN
 10
257.51269
 20
648.69662
 11
257.32556
 21
651.69078
  0
LINE
  8
CYAN
 10
257.32556
 20
651.69078
 11
215.32556
 21
649.06578
  0
ARC
  8
CYAN
 10
261.6552718111
 20
649.3739228057
 40
46.3307365416
 50
173.2991956033
 51
180.3810734241
  0
ARC
  8
CYAN
 10
221.60003745
 20
654.0798930942
 40
6.0000043876
 50
146.1670040519
 51
173.2991156991
  0
ARC
  8
CYAN
 10
239.5769266054
 20
642.0304579794
 40
27.6415715741
 50
134.5970386684
 51
146.1670751293
  0
ARC
  8
CYAN
 10
280.7570830333
 20
614.1305732601
 40
77.0386996826
 50
132.2710513014
 51
141.8557890725
  0
LINE
  8
CYAN
 10
228.93787
 20
671.13698
 11
272.26959
 21
664.84689
  0
LINE
  8
CYAN
 10
272.26959
 20
664.84689
 11
272.70056
 21
667.81578
  0
LINE
  8
CYAN
 10
272.70056
 20
667.81578
 11
226.20056
 21
674.56578
  0
ARC
  8
CYAN
 10
251.750562619
 20
674.7022465598
 40
25.5503670611
 50
161.7195297417
 51
180.3060228089
  0
ARC
  8
CYAN
 10
233.1868564775
 20
680.8345743408
 40
6.0000056905
 50
134.4816193182
 51
161.7194194667
  0
ARC
  8
CYAN
 10
234.7815365029
 20
679.2107906683
 40
8.275896241
 50
57.254322355
 51
134.4816978174
  0
LINE
  8
CYAN
 10
239.25806
 20
686.17148
 11
242.96452
 21
683.7878
  0
ARC
  8
CYAN
 10
246.2100060471
 20
688.8342639656
 40
5.9999981865
 50
237.2540851375
 51
261.5291595294
  0
ARC
  8
CYAN
 10
246.5659398182
 20
691.2244299313
 40
8.4165209346
 50
261.5293980485
 51
319.8947497397
  0
ARC
  8
CYAN
 10
250.1351873061
 20
688.2182940238
 40
3.7500039547
 50
319.8946493454
 51
345.0684552886
  0
LINE
  8
CYAN
 10
253.75857
 20
687.25205
 11
254.7367
 21
690.92005
  0
ARC
  8
CYAN
 10
251.1133202315
 20
691.8862810163
 40
3.7499977765
 50
345.0686358011
 51
349.2707408014
  0
ARC
  8
CYAN
 10
262.6269480704
 20
689.7046592853
 40
7.968496128
 50
51.3749726277
 51
169.2706772179
  0
LINE
  8
CYAN
 10
267.60105
 20
695.93003
 11
270.20898
 21
693.84628
  0
ARC
  8
CYAN
 10
272.8159386254
 20
697.109040008
 40
4.1763424362
 50
231.3750018459
 51
307.9583714969
  0
ARC
  8
CYAN
 10
273.0781797485
 20
696.7728896832
 40
3.7500004989
 50
307.9583137311
 51
335.1430277651
  0
LINE
  8
CYAN
 10
276.48078
 20
695.19656
 11
279.49479
 21
701.70246
  0
ARC
  8
CYAN
 10
284.7005610798
 20
699.2907799829
 40
5.7372687788
 50
23.0412382215
 51
155.143103515
  0
LINE
  8
CYAN
 10
289.98013
 20
701.53631
 11
292.20352
 21
696.3088
  0
ARC
  8
CYAN
 10
297.0459515338
 20
698.368409667
 40
5.2622367051
 50
203.0412872238
 51
312.4640189592
  0
LINE
  8
CYAN
 10
300.59863
 20
694.48645
 11
304.77008
 21
698.30406
  0
ARC
  8
CYAN
 10
309.2399333484
 20
693.4199189837
 40
6.6207569374
 50
13.7664871729
 51
132.4640317892
  0
ARC
  8
CYAN
 10
311.2997702373
 20
693.9245979953
 40
4.4999955379
 50
342.8336768118
 51
13.7663404175
  0
LINE
  8
CYAN
 10
315.5993
 20
692.59644
 11
314.0285
 21
687.51137
  0
LINE
  8
CYAN
 10
68.0
 20
112.0
 11
494.0
 21
112.0
  0
LINE
  8
CYAN
 10
494.0
 20
112.0
 11
494.0
 21
708.0
  0
LINE
  8
CYAN
 10
494.0
 20
708.0
 11
68.0
 21
708.0
  0
LINE
  8
CYAN
 10
68.0
 20
708.0
 11
68.0
 21
112.0
  0
ENDSEC
  0
EOF
